<svg width="274" height="285" viewBox="0 0 274 285" fill="none" xmlns="http://www.w3.org/2000/svg">
<path d="M172.428 109.144C173.143 108.539 219.104 107.99 237.378 117.977C255.721 128.006 261.969 134.902 267.542 150.631C273.486 167.405 280.092 186.569 258.584 178.587C237.076 170.606 209.678 163.545 209.678 163.545" fill="#9077ED"/>
<path d="M220.067 166.347C213.792 164.589 209.692 163.531 209.692 163.531L172.428 109.13C172.703 108.883 180.533 108.649 190.936 109.13C192.064 110.779 193.151 112.414 194.225 114.035L194.252 114.076C203.513 128.28 210.187 141.606 214.907 152.829C216.531 156.676 218.292 161.319 220.081 166.334L220.067 166.347Z" fill="#806CE5"/>
<g opacity="0.5">
<path d="M200.719 118.431C208.053 118.609 215.415 119.324 222.626 121.178C224.428 121.659 226.217 122.195 227.979 122.895C229.74 123.582 231.446 124.489 233.043 125.354C236.276 127.126 239.455 129.05 242.483 131.248C245.469 133.487 248.331 136.028 250.643 139.051C252.941 142.073 254.757 145.425 256.106 148.887C257.482 152.362 258.486 155.879 259.532 159.396C260.509 162.927 261.445 166.512 261.761 170.18C260.839 166.636 259.573 163.215 258.252 159.822C256.918 156.429 255.624 152.994 254.138 149.739C252.597 146.496 250.849 143.392 248.606 140.672C246.404 137.924 243.735 135.575 240.845 133.459C237.983 131.316 234.887 129.434 231.763 127.607C230.18 126.673 228.681 125.808 227.043 125.107C225.419 124.406 223.727 123.788 222.02 123.225C215.14 121.041 207.929 119.722 200.719 118.431Z" fill="#FAFBFD"/>
</g>
<path d="M97.6643 183.78C97.0588 184.495 96.5084 230.378 106.512 248.622C116.558 266.934 123.466 273.171 139.222 278.734C156.023 284.669 175.22 291.263 167.225 269.791C159.23 248.319 152.157 220.968 152.157 220.968" fill="#9077ED"/>
<path d="M154.964 231.34C153.203 225.075 152.143 220.982 152.143 220.982L97.6509 183.78C97.417 184.055 97.1693 191.872 97.6509 202.257C99.3022 203.384 100.94 204.469 102.564 205.541L102.605 205.568C116.833 214.813 130.181 221.476 141.424 226.188C145.277 227.809 149.928 229.568 154.951 231.354L154.964 231.34Z" fill="#806CE5"/>
<g opacity="0.5">
<path d="M106.965 212.025C108.272 219.223 109.579 226.435 111.767 233.291C112.332 234.994 112.951 236.684 113.653 238.305C114.354 239.926 115.221 241.423 116.157 243.017C117.987 246.149 119.872 249.226 122.019 252.084C124.124 254.955 126.478 257.634 129.243 259.832C131.968 262.071 135.078 263.829 138.326 265.354C141.587 266.838 145.027 268.129 148.426 269.462C151.825 270.78 155.251 272.044 158.801 272.965C155.127 272.649 151.536 271.715 147.999 270.739C144.477 269.695 140.954 268.692 137.472 267.319C134.005 265.972 130.647 264.145 127.62 261.865C124.592 259.557 122.047 256.699 119.804 253.718C117.602 250.696 115.675 247.523 113.9 244.294C113.033 242.701 112.125 240.997 111.437 239.239C110.735 237.494 110.199 235.695 109.717 233.895C107.846 226.696 107.13 219.347 106.965 212.025Z" fill="#FAFBFD"/>
</g>
<path d="M1.09177 14.0799C-0.146694 5.93348 7.3529 -0.7842 15.3479 1.2627C38.6998 7.25229 59.4097 14.9453 77.7527 23.7649V23.8061C125.2 46.6517 156.863 77.053 177.559 104.542L177.601 104.597C187.783 118.156 195.338 131 200.787 141.894C210.557 161.319 225.57 202.23 225.57 202.23L188.871 237.48C178.963 233.813 139.593 216.036 130.897 211.503C115.774 203.576 102.439 194.427 90.6052 184.398V184.357C53.4375 153.036 31.3241 113.458 18.1963 78.8114C8.17854 52.449 3.36229 28.9577 1.10553 14.0936L1.09177 14.0799Z" fill="url(#paint0_linear_242_92)"/>
<g opacity="0.5">
<path d="M61.4877 62.5461C59.0383 66.1179 56.0247 69.2775 52.8322 72.2173C49.6122 75.1434 46.1308 77.7948 42.5117 80.2264C41.6173 80.8583 40.6678 81.3941 39.7458 81.9848C38.7275 82.603 38.0945 83.0014 37.4615 83.6608C36.2368 84.9246 35.5625 86.6418 35.5625 88.3453C35.5625 89.197 35.7277 90.0213 36.0304 90.8043C36.0992 90.9966 36.1818 91.189 36.2919 91.3675C36.3882 91.5461 36.4707 91.7247 36.6221 91.9857L37.4202 93.387L40.654 98.9644C45.0161 106.355 49.3232 113.787 53.878 121.054C58.3778 128.335 62.9464 135.589 67.9277 142.471C70.3772 145.933 72.9504 149.326 75.62 152.61C78.3171 155.893 81.1105 159.08 84.0003 162.185C89.7385 168.463 95.9721 174.26 102.453 179.796C108.976 185.278 115.801 190.429 122.916 195.21C130.002 200.032 137.461 204.277 145.002 208.508C136.952 205.39 129.08 201.749 121.498 197.504C113.971 193.204 106.664 188.451 99.7563 183.135C85.9268 172.557 73.6109 159.877 63.4555 145.658C53.4377 131.371 44.9336 116.329 36.9249 101.025L33.9663 95.269L33.237 93.8266C33.003 93.3595 32.659 92.6726 32.4939 92.0681C32.0811 90.818 31.9297 89.4855 32.026 88.1804C32.2049 85.5703 33.4296 83.0975 35.3286 81.3941C36.2368 80.5286 37.5028 79.8829 38.356 79.4433C39.2917 78.9488 40.2412 78.4679 41.1632 77.9322C44.8923 75.899 48.4701 73.5774 51.924 71.0359C55.3367 68.467 58.653 65.7332 61.5565 62.5323L61.4877 62.5461Z" fill="#FAFBFD"/>
</g>
<path d="M225.557 202.216L188.857 237.467C183.834 235.612 171.243 230.117 158.913 224.567C162.037 225.9 164.61 226.944 166.317 227.576C189.228 205.568 196.04 171.595 183.174 142.568C181.44 138.666 179.761 135.053 178.22 131.976C172.77 121.082 165.23 108.251 155.047 94.7058L155.005 94.6508C134.433 67.3405 103.1 37.159 56.1621 14.3684C63.703 17.3219 70.8723 20.4679 77.7389 23.7511V23.7923C125.186 46.638 156.836 77.0392 177.545 104.542L177.587 104.583C187.77 118.156 195.311 130.987 200.76 141.881C210.544 161.306 225.543 202.216 225.543 202.216H225.557Z" fill="#E58842"/>
<path d="M1.09177 14.0799C-0.146694 5.93348 7.3529 -0.7842 15.3479 1.2627C38.6998 7.25229 59.4097 14.9453 77.7527 23.7649V23.8061C54.0705 70.0331 18.1963 78.7976 18.1963 78.7976C8.17854 52.4352 3.36229 28.9439 1.10553 14.0799H1.09177Z" fill="#9077ED"/>
<g opacity="0.5">
<path d="M17.9488 60.7052C16.215 57.0648 14.8114 53.3007 13.5592 49.4954C12.2932 45.6901 11.2611 41.8161 10.3254 37.9283C9.4447 34.0269 8.66034 30.0842 8.10991 26.114C7.54572 22.1438 7.16042 18.1462 7.11914 14.1211C8.2888 17.9813 9.26581 21.8416 10.2153 25.7019C11.1923 29.5621 12.073 33.4361 12.995 37.2964C13.8757 41.1704 14.7839 45.0307 15.6233 48.9321C16.4764 52.8199 17.3021 56.7213 17.9488 60.7052Z" fill="#FAFBFD"/>
</g>
<path d="M77.7538 23.7649V23.8061C54.0579 70.0193 18.1837 78.7976 18.1837 78.7976C17.936 78.1657 17.7158 77.5475 17.4681 76.9156C26.3851 71.9288 45.2372 49.5915 55.5303 36.9255C59.1769 32.4333 57.5806 25.6881 52.2827 23.3802C52.2415 23.3665 52.2139 23.3527 52.1726 23.339C37.201 16.7999 20.7707 11.0164 2.74414 6.26319C5.27611 2.26555 10.2025 -0.056104 15.349 1.2627C38.7009 7.25229 59.4108 14.9453 77.7538 23.7786V23.7649Z" fill="#806CE5"/>
<path d="M104.916 69.7033C123.273 73.1103 135.382 90.7219 131.983 109.048C128.57 127.374 110.929 139.463 92.5724 136.07C74.2156 132.663 62.1062 115.051 65.5051 96.7252C68.9178 78.3992 86.559 66.3102 104.916 69.7033Z" fill="#F1EDFC"/>
<path d="M125.479 108.826C128.777 94.083 119.479 79.4626 104.712 76.1699C89.9445 72.8772 75.2994 82.1593 72.0012 96.9019C68.703 111.644 78.0007 126.265 92.7681 129.558C107.536 132.85 122.181 123.568 125.479 108.826Z" fill="#2A2D60"/>
<g opacity="0.5">
<path d="M83.765 119.969C79.8432 116.961 77.0911 112.276 76.1966 107.152C75.2471 102.028 76.2104 96.5603 78.7561 91.9445C80.0083 89.6091 81.7422 87.5622 83.6824 85.8175C85.6502 84.0729 87.8795 82.6442 90.3289 81.7237C92.737 80.7621 95.2965 80.1989 97.8422 80.1302C100.388 80.1164 102.906 80.4736 105.218 81.3254C102.741 81.3666 100.374 81.5864 98.1037 82.1359C95.8332 82.6579 93.7002 83.5646 91.7049 84.6361C89.7234 85.7351 87.9207 87.0951 86.3658 88.675C84.8108 90.2548 83.3935 91.9857 82.3752 93.9502C80.2423 97.8105 79.1827 102.275 79.3891 106.795C79.623 111.315 81.1367 115.834 83.765 119.983V119.969Z" fill="#FAFBFD"/>
</g>
<defs>
<linearGradient id="paint0_linear_242_92" x1="-0.0163385" y1="118.255" x2="226.297" y2="120.312" gradientUnits="userSpaceOnUse">
<stop offset="0.03" stop-color="#FCC044"/>
<stop offset="0.65" stop-color="#F49B49"/>
</linearGradient>
</defs>
</svg>
