<svg width="611" height="519" viewBox="0 0 611 519" fill="none" xmlns="http://www.w3.org/2000/svg">
<path fill-rule="evenodd" clip-rule="evenodd" d="M101.65 250.734C101.729 250.916 101.646 251.127 101.464 251.206C84.2206 258.708 73.891 272.711 68.8085 286.915C63.7198 301.136 63.9112 315.496 67.6311 323.676L67.6311 323.676C73.1662 335.86 82.1565 345.905 95.0798 350.635C95.748 347.789 97.0455 344.911 98.7442 342.319C101.282 338.448 104.744 335.173 108.418 333.592C113.638 331.345 118.897 331.604 121.853 333.913C123.344 335.079 124.233 336.757 124.213 338.847C124.193 340.922 123.278 343.368 121.245 346.1L121.245 346.1C115.99 353.161 105.68 354.58 97.7809 352.275M66.9786 323.972C63.1576 315.57 63.005 301.006 68.1337 286.674C73.2685 272.324 83.7176 258.145 101.178 250.549C101.36 250.47 101.571 250.553 101.65 250.734" fill="#806CE5"/>
<path fill-rule="evenodd" clip-rule="evenodd" d="M144.377 233.752C144.449 233.913 144.392 234.103 144.244 234.199L118.704 250.629C118.553 250.726 118.354 250.697 118.237 250.561L111.728 242.936C111.649 242.843 111.622 242.715 111.658 242.598C111.694 242.481 111.788 242.39 111.906 242.358L143.955 233.552C144.125 233.505 144.305 233.59 144.377 233.752ZM112.64 242.9L118.579 249.857L141.885 234.864L112.64 242.9Z" fill="#806CE5"/>
<path fill-rule="evenodd" clip-rule="evenodd" d="M101.277 230.466C101.343 230.337 101.48 230.26 101.624 230.271L144.076 233.54C144.262 233.555 144.406 233.71 144.407 233.896C144.407 234.083 144.265 234.239 144.078 234.255L107.103 237.359C106.989 237.369 106.877 237.323 106.802 237.236L101.325 230.862C101.23 230.752 101.211 230.596 101.277 230.466ZM102.433 231.052L107.226 236.63L139.582 233.913L102.433 231.052Z" fill="#806CE5"/>
<path fill-rule="evenodd" clip-rule="evenodd" d="M144.401 233.835C144.434 234.017 144.322 234.194 144.144 234.243L112.213 243.017L107.305 249.54C107.212 249.664 107.051 249.714 106.904 249.665C106.758 249.615 106.659 249.478 106.66 249.323L106.715 237.001C106.716 236.815 106.859 236.661 107.044 236.645L144.019 233.541C144.203 233.525 144.369 233.653 144.401 233.835ZM107.43 237.332L107.382 248.246L111.714 242.488C111.761 242.425 111.828 242.379 111.905 242.358L140.216 234.579L107.43 237.332Z" fill="#806CE5"/>
<path fill-rule="evenodd" clip-rule="evenodd" d="M111.988 242.345C112.097 242.342 112.201 242.388 112.272 242.47L115.533 246.276C115.611 246.366 115.638 246.489 115.607 246.603C115.576 246.718 115.489 246.809 115.377 246.848L107.134 249.664C106.985 249.715 106.821 249.663 106.728 249.535C106.636 249.408 106.638 249.235 106.732 249.11L111.714 242.488C111.779 242.401 111.88 242.349 111.988 242.345ZM112.018 243.275L108.006 248.609L114.645 246.341L112.018 243.275Z" fill="#806CE5"/>
<path fill-rule="evenodd" clip-rule="evenodd" d="M423.858 57.6056C423.864 57.4078 424.029 57.2525 424.227 57.2588C449.284 58.0566 465.232 62.3594 476.049 68.3363C486.874 74.3186 492.525 81.9604 497.014 89.3572L496.719 89.5362L497.014 89.3573C497.596 90.3167 498.087 91.3684 498.49 92.4852C512.282 89.8166 525.392 93.8835 536.569 101.584C544.176 106.826 551.815 119.232 554.809 134.154C557.807 149.094 556.163 166.619 545.12 182.109C545.005 182.27 544.782 182.308 544.62 182.193C544.459 182.078 544.422 181.854 544.537 181.693C555.442 166.396 557.074 149.083 554.106 134.295C551.135 119.489 543.568 107.278 536.162 102.175C525.131 94.5742 512.25 90.5843 498.724 93.1702C499.618 95.9518 499.991 99.0872 499.871 102.184C499.692 106.808 498.413 111.399 496.076 114.645L496.076 114.645C492.758 119.251 488.118 121.73 484.394 121.27C482.515 121.038 480.888 120.056 479.827 118.255C478.774 116.466 478.296 113.9 478.627 110.513L478.627 110.513C479.486 101.764 487.603 95.2354 495.557 93.1529C496.3 92.9584 497.041 92.7838 497.78 92.6286C497.399 91.5912 496.939 90.6168 496.401 89.729L496.707 89.5431L496.401 89.729C491.945 82.3855 486.374 74.861 475.702 68.9636C465.02 63.061 449.196 58.7709 424.204 57.9752C424.007 57.9689 423.851 57.8034 423.858 57.6056ZM498.016 93.3114C497.259 93.4688 496.499 93.6469 495.738 93.8462L495.738 93.8462C487.951 95.8851 480.16 102.242 479.34 110.583C479.018 113.879 479.494 116.277 480.445 117.891C481.389 119.494 482.816 120.353 484.482 120.559C487.848 120.975 492.262 118.714 495.494 114.226C497.726 111.126 498.979 106.684 499.155 102.156C499.273 99.0933 498.898 96.0154 498.016 93.3114Z" fill="#806CE5"/>
<path d="M166.271 497.604C163.093 497.989 122.017 497.44 92.9269 497C78.8497 496.78 78.2992 475.665 92.3627 475.047C96.7386 474.855 101.72 475.446 107.403 477.149C103.426 471.421 108.532 461.584 113.417 458.081C118.178 454.661 124.315 453.603 130.163 453.988C138.612 454.537 147.268 458.301 151.781 465.458C154.575 462.381 169.904 456.034 179.895 465.088C183.582 468.426 185.495 474.196 185.193 480.213C184.848 487.04 180.404 492.824 174.115 495.503C171.446 496.643 168.845 497.288 166.271 497.591V497.604Z" fill="#FFEBED"/>
<path d="M185.193 480.213C184.849 487.04 180.404 492.824 174.102 495.503C171.446 496.643 168.831 497.288 166.272 497.604C163.093 497.989 122.004 497.426 92.9272 497C86.9826 496.918 83.4461 493.112 82.4141 488.675C84.1892 490.392 86.6936 491.519 89.8861 491.574C118.976 492.013 160.066 492.549 163.231 492.164C165.804 491.876 168.405 491.23 171.074 490.076C177.363 487.397 181.808 481.6 182.138 474.786C182.289 471.778 181.89 468.852 180.996 466.241C183.954 469.662 185.454 474.841 185.193 480.213Z" fill="#FDDDE0"/>
<path d="M112.658 475.047C112.961 471.682 114.103 468.343 116.043 465.458C117.956 462.56 120.97 460.307 124.41 459.4C127.85 458.507 131.442 458.864 134.73 459.785C138.033 460.746 141.129 462.23 143.991 464.03C143.207 463.728 142.423 463.412 141.638 463.068C140.854 462.752 140.056 462.491 139.271 462.203C138.487 461.914 137.675 461.681 136.891 461.42C136.093 461.186 135.281 461.007 134.469 460.801C131.235 460.142 127.878 459.867 124.754 460.719C121.616 461.516 118.892 463.48 116.897 466.063C115.878 467.354 115.053 468.797 114.365 470.308C113.635 471.805 113.099 473.399 112.672 475.034L112.658 475.047Z" fill="#F4CBD0"/>
<path d="M99.7647 479.347C98.3336 479.43 96.93 479.553 95.5815 479.773C94.2329 480.007 92.8981 480.295 91.7422 480.886C90.5588 481.435 89.568 482.26 88.8387 483.331C88.0544 484.389 87.7929 485.749 87.4214 487.15C87.215 485.763 87.1599 484.183 87.903 482.809C88.5497 481.408 89.7882 480.309 91.1505 479.649C92.5404 478.99 94.0265 478.743 95.4851 478.715C96.9438 478.688 98.4024 478.88 99.7647 479.361V479.347Z" fill="#F4CBD0"/>
<path d="M158.398 466.983C160.655 465.857 163.215 465.403 165.788 465.472C168.361 465.555 171.031 466.283 173.274 467.78C175.475 469.278 177.333 471.407 178.241 473.852L178.64 474.745C178.723 475.061 178.819 475.363 178.888 475.679L179.328 477.534C179.48 478.798 179.521 480.062 179.507 481.298C178.929 480.158 178.53 479.017 178.049 477.932L177.223 476.352C177.085 476.091 176.962 475.83 176.838 475.569L176.356 474.855C176.026 474.388 175.709 473.907 175.407 473.44L174.292 472.19C173.962 471.737 173.494 471.434 173.081 471.063L172.462 470.514L171.76 470.074C169.944 468.852 167.825 468.055 165.554 467.588C163.283 467.148 160.889 466.97 158.398 466.983Z" fill="#F4CBD0"/>
<path d="M264.783 82.8941C264.783 82.8941 268.581 59.1831 243.853 50.5284C235.555 47.6298 215.354 47.4374 203.672 61.6971C199.97 66.2167 198.676 71.8079 196.654 76.9732C190.131 65.4749 169.958 62.2328 158.316 64.9391C149.372 67.0135 141.28 72.3986 135.694 79.6521C133.602 82.3721 131.675 89.2134 129.02 90.7933C125.084 93.1286 116.057 90.0926 111.31 91.2466C105.558 92.6341 100.645 97.0851 98.6773 102.649C97.6177 105.657 97.7553 109.682 100.549 111.235C101.498 111.757 102.599 111.894 103.686 111.949C119.827 112.718 265.223 111.29 275.585 109.792C281.502 108.941 284.254 106.138 285.933 100.382C287.667 94.42 285.465 85.4768 280.057 82.0149C273.851 78.0448 264.769 82.8941 264.769 82.8941H264.783Z" fill="#FFEBED"/>
<path d="M285.961 100.368C284.296 106.138 281.544 108.927 275.627 109.779C265.251 111.276 119.869 112.691 103.714 111.935C102.641 111.88 101.526 111.743 100.577 111.221C97.8795 109.724 97.6731 105.946 98.6089 102.992C98.7878 103.033 98.9804 103.047 99.1455 103.047C115.273 103.816 260.683 102.374 271.044 100.89C276.962 100.025 279.714 97.2224 281.392 91.4801C282.108 89.0348 282.136 86.0538 281.571 83.1964C285.892 87.2078 287.502 95.0107 285.961 100.382V100.368Z" fill="#FDDDE0"/>
<path d="M207.373 70.338C210.965 66.7387 215.217 63.6615 220.074 61.7795C222.496 60.8453 225.097 60.2958 227.711 60.2271C230.34 60.2271 232.858 60.5294 235.404 60.9964C240.44 61.9443 245.421 64.0324 249.137 67.6317C252.88 71.2172 255.247 75.8742 257.132 80.5588C254.985 75.9841 252.494 71.437 248.71 68.0988C244.981 64.7193 240.165 62.7961 235.225 61.9855C233.986 61.7795 232.748 61.6284 231.482 61.5322C230.23 61.4223 228.964 61.3811 227.753 61.4498C225.289 61.6284 222.868 62.1779 220.542 63.0296C218.216 63.8951 215.96 64.9941 213.772 66.2167C211.598 67.4806 209.492 68.8818 207.373 70.3105V70.338Z" fill="#F4CBD0"/>
<path d="M142.781 87.3863C145.093 84.0481 148.107 81.1907 151.451 78.8141C154.794 76.4375 158.62 74.6653 162.665 73.7587C164.702 73.3328 166.766 73.1267 168.844 73.1405C170.922 73.1817 172.986 73.4702 174.981 73.951C176.963 74.5005 178.931 75.1462 180.761 76.0528C182.605 76.9458 184.352 78.0036 186.004 79.185C182.426 77.2755 178.655 75.7643 174.761 74.9813C170.853 74.2532 166.835 74.2395 162.968 75.1049C159.101 75.9429 155.427 77.5914 152.042 79.6933C150.35 80.7511 148.726 81.9325 147.185 83.2239C145.616 84.4877 144.157 85.8889 142.795 87.3863H142.781Z" fill="#F4CBD0"/>
<path d="M56.1147 291.692C52.2342 288.669 47.528 286.678 42.643 286.142C32.7628 285.056 22.5936 289.645 16.4151 297.407C13.1813 301.473 10.9245 306.679 11.8465 311.79C14.0895 324.291 32.0472 322.189 41.1293 322.505C55.7845 323.013 142.904 322.491 171.732 320.362C176.782 319.991 182.493 318.288 184.516 313.644C186.525 309.029 183.718 303.424 179.425 300.772C175.131 298.135 169.833 297.805 164.797 297.956C157.972 298.162 151.077 299.138 144.844 301.899C145.036 299.275 139.202 287.722 127.891 282.735C106.176 273.146 77.7879 284.589 64.7014 303.685C63.1602 298.918 60.0778 294.783 56.1285 291.705L56.1147 291.692Z" fill="#FFEBED"/>
<path d="M184.503 313.644C182.467 318.288 176.784 319.991 171.72 320.362C142.905 322.478 55.7718 323 41.1166 322.505C32.0345 322.189 14.0768 324.291 11.8338 311.804C11.4623 309.784 11.6136 307.737 12.109 305.773C15.2052 316.996 32.3235 315.046 41.1166 315.348C55.7718 315.856 142.905 315.334 171.72 313.191C176.715 312.82 182.315 311.172 184.407 306.679C185.329 308.932 185.48 311.405 184.517 313.644H184.503Z" fill="#FDDDE0"/>
<path d="M149.605 308.52C154.023 306.35 158.977 305.058 164.013 305.155C166.517 305.223 169.049 305.649 171.402 306.597C173.756 307.517 175.875 308.96 177.567 310.76C175.531 309.358 173.329 308.314 171.045 307.6C168.76 306.913 166.38 306.57 163.985 306.515C159.183 306.391 154.394 307.353 149.605 308.52Z" fill="#F4CBD0"/>
<path d="M78.3535 301.734C82.523 298.478 87.1329 295.731 92.0592 293.67C96.9993 291.692 102.311 290.359 107.705 290.332C113.113 290.263 118.494 291.678 123.227 294.165C127.988 296.61 132.185 300.03 135.736 303.946C131.828 300.388 127.534 297.269 122.801 295.044C118.067 292.887 112.934 291.472 107.733 291.651C102.531 291.747 97.3708 292.846 92.472 294.714C87.5457 296.5 82.867 298.973 78.3535 301.72V301.734Z" fill="#F4CBD0"/>
<path d="M22.4707 302.97C24.5899 301.033 27.0668 299.481 29.7364 298.341C32.4059 297.187 35.2957 296.5 38.2542 296.431C38.9973 296.459 39.7266 296.431 40.4697 296.514L42.6577 296.857C43.3732 297.022 44.0613 297.297 44.7768 297.516C45.1208 297.64 45.4924 297.723 45.8089 297.887L46.7859 298.409C47.4189 298.78 48.1207 299.041 48.6849 299.508L50.405 300.855C50.9967 301.281 51.4508 301.858 51.9462 302.38C52.4415 302.902 52.9094 303.437 53.3773 303.987C51.148 302.187 48.9326 300.401 46.3318 299.399C43.7998 298.3 41.0477 297.709 38.2955 297.832C35.5434 297.874 32.7912 298.464 30.1492 299.371C27.5209 300.319 24.9201 301.5 22.4982 303.012L22.4707 302.97Z" fill="#F4CBD0"/>
<path d="M565.566 154.673C562.388 155.058 521.312 154.508 492.222 154.069C478.145 153.849 477.594 132.734 491.658 132.116C496.034 131.924 501.015 132.514 506.698 134.218C502.721 128.489 507.826 118.653 512.711 115.15C517.473 111.729 523.61 110.672 529.458 111.056C537.907 111.606 546.563 115.37 551.076 122.527C553.87 119.45 569.199 113.103 579.19 122.156C582.877 125.494 584.79 131.264 584.487 137.281C584.143 144.109 579.699 149.892 573.41 152.571C570.74 153.711 568.14 154.357 565.566 154.659V154.673Z" fill="#FFEBED"/>
<path d="M584.474 137.295C584.13 144.123 579.685 149.906 573.383 152.585C570.727 153.725 568.113 154.371 565.553 154.687C562.374 155.071 521.285 154.508 492.208 154.082C486.264 154 482.727 150.195 481.695 145.757C483.47 147.475 485.975 148.601 489.167 148.656C518.258 149.096 559.347 149.631 562.512 149.247C565.085 148.958 567.686 148.313 570.356 147.159C576.644 144.48 581.089 138.682 581.419 131.869C581.571 128.86 581.172 125.934 580.277 123.324C583.236 126.745 584.736 131.924 584.474 137.295Z" fill="#FDDDE0"/>
<path d="M511.955 132.13C512.258 128.764 513.4 125.426 515.34 122.541C517.253 119.642 520.267 117.389 523.707 116.483C527.147 115.59 530.738 115.947 534.027 116.867C537.33 117.829 540.426 119.312 543.288 121.112C542.504 120.81 541.72 120.494 540.935 120.15C540.151 119.835 539.353 119.574 538.568 119.285C537.784 118.997 536.972 118.763 536.188 118.502C535.39 118.268 534.578 118.09 533.766 117.884C530.532 117.224 527.174 116.95 524.051 117.801C520.913 118.598 518.189 120.563 516.193 123.145C515.175 124.437 514.349 125.879 513.661 127.39C512.932 128.888 512.395 130.481 511.969 132.116L511.955 132.13Z" fill="#F4CBD0"/>
<path d="M499.048 136.43C497.617 136.512 496.213 136.636 494.865 136.855C493.516 137.089 492.181 137.377 491.025 137.968C489.842 138.518 488.851 139.342 488.122 140.413C487.338 141.471 487.076 142.831 486.705 144.232C486.498 142.845 486.443 141.265 487.186 139.891C487.833 138.49 489.071 137.391 490.434 136.732C491.824 136.072 493.31 135.825 494.768 135.798C496.227 135.77 497.686 135.962 499.048 136.443V136.43Z" fill="#F4CBD0"/>
<path d="M557.695 124.066C560.007 123.241 562.525 122.912 565.03 123.077C567.534 123.241 570.052 124.011 572.185 125.426C574.277 126.868 576.093 128.833 577.057 131.168L577.469 132.006L577.758 132.899L578.295 134.685C578.515 135.908 578.667 137.13 578.791 138.339C578.364 137.185 578.075 136.004 577.648 134.877L576.919 133.229L576.575 132.404L576.107 131.649L575.185 130.138L574.057 128.791C573.713 128.311 573.231 127.981 572.805 127.583L572.158 127.006L571.429 126.538C569.516 125.233 567.245 124.464 564.906 124.107C562.553 123.777 560.117 123.722 557.695 124.024V124.066Z" fill="#F4CBD0"/>
<path d="M610.303 472.204V516.356H583.332C567.094 516.356 550.65 519.255 534.522 518.499C533.435 518.444 532.321 518.307 531.385 517.785C528.591 516.233 528.44 512.207 529.513 509.199C531.467 503.621 536.38 499.184 542.146 497.783C546.893 496.643 561.053 496.272 566.516 486.202C570.892 478.152 580.18 473.55 589.139 471.489C594.973 470.129 602.968 470.267 610.303 472.204Z" fill="#FFEBED"/>
<path d="M610.303 509.845V516.356H583.332C567.094 516.356 550.65 519.255 534.522 518.499C533.435 518.444 532.321 518.307 531.385 517.785C528.591 516.233 528.44 512.207 529.513 509.199C529.885 510.051 530.518 510.779 531.385 511.273C532.321 511.795 533.435 511.933 534.522 511.988C550.65 512.743 567.094 509.845 583.332 509.845H610.303Z" fill="#FDDDE0"/>
<path d="M570.672 499.459C572.172 496.615 574.167 494.06 576.396 491.725C578.626 489.389 581.199 487.37 583.978 485.68C586.758 483.99 589.827 482.754 592.992 482.067C596.157 481.257 599.446 481.298 602.624 481.614C601.826 481.696 601.028 481.751 600.23 481.806L599.046 481.889C598.647 481.93 598.262 482.026 597.877 482.095L595.537 482.479C594.767 482.672 594.024 482.905 593.267 483.111C590.267 484.018 587.35 485.227 584.694 486.889C581.997 488.483 579.492 490.406 577.139 492.508C575.97 493.566 574.841 494.678 573.782 495.86C572.667 497 571.676 498.236 570.686 499.486L570.672 499.459Z" fill="#F4CBD0"/>
<path d="M555.771 190.872L557.051 201.903L568.114 203.18L557.051 204.472L555.771 215.503L554.491 204.472L543.428 203.18L554.491 201.903L555.771 190.872Z" fill="#F49B49"/>
<path d="M135.724 186.338L137.018 197.383L148.067 198.661L137.018 199.938L135.724 210.983L134.444 199.938L123.395 198.661L134.444 197.383L135.724 186.338Z" fill="#F49B49"/>
<path d="M305.255 33.9609L306.438 44.1267L316.621 45.3081L306.438 46.4895L305.255 56.6553L304.085 46.4895L293.902 45.3081L304.085 44.1267L305.255 33.9609Z" fill="#F49B49"/>
<path d="M119.638 432.626L120.532 440.387L128.307 441.28L120.532 442.187L119.638 449.935L118.73 442.187L110.969 441.28L118.73 440.387L119.638 432.626Z" fill="#F49B49"/>
<path d="M385.634 496.134L386.529 503.882L394.303 504.789L386.529 505.682L385.634 513.444L384.726 505.682L376.965 504.789L384.726 503.882L385.634 496.134Z" fill="#F49B49"/>
<path d="M437.731 485.254L438.267 489.898L442.905 490.433L438.267 490.969L437.731 495.612L437.18 490.969L432.543 490.433L437.18 489.898L437.731 485.254Z" fill="#F49B49"/>
<path d="M387.986 165.855L388.647 171.529L394.33 172.188L388.647 172.848L387.986 178.521L387.326 172.848L381.656 172.188L387.326 171.529L387.986 165.855Z" fill="#F49B49"/>
<path d="M166.7 230.628L167.47 237.195L174.048 237.95L167.47 238.72L166.7 245.286L165.943 238.72L159.352 237.95L165.943 237.195L166.7 230.628Z" fill="#F49B49"/>
<path d="M571.084 358.333C600.614 416.017 544.127 437.97 544.127 437.97C544.319 438.327 547.14 445.072 549.507 451.419C551.186 458.837 552.466 468.536 553.842 478.509C551.034 487.507 543.948 491.313 539.241 491.56C538.884 491.574 538.581 491.574 538.306 491.56C538.141 491.56 537.975 491.532 537.824 491.519C531.274 489.554 524.091 484.485 519.013 476.778C506.835 458.26 494.56 454.468 493.996 454.304C491.354 456.378 488.753 458.219 486.18 459.854C484.625 460.829 483.098 461.749 481.584 462.601C481.075 462.889 480.58 463.151 480.07 463.425C479.066 463.961 478.075 464.456 477.084 464.936C476.589 465.17 476.094 465.404 475.598 465.623C474.607 466.077 473.644 466.489 472.667 466.873C471.69 467.258 470.727 467.629 469.777 467.972C468.814 468.302 467.865 468.618 466.929 468.907C466.461 469.044 465.993 469.181 465.525 469.319C464.135 469.717 462.759 470.047 461.397 470.349C460.489 470.528 459.581 470.706 458.686 470.857C457.365 471.077 456.058 471.256 454.764 471.393C429.431 474.017 412.175 459.95 411.212 459.153C411.212 459.125 411.184 459.112 411.184 459.112C369.806 499.693 325.097 460.444 325.097 460.444C313.717 467.079 246.014 481.93 222.883 422.707C222.594 421.979 222.318 421.237 222.057 420.509C201.072 362.619 252.771 328.316 252.771 328.316C250.294 273.627 307.291 268.338 307.291 268.338C338.913 197.521 401.029 229.969 401.029 229.969C441.485 203.208 470.562 234.502 470.562 234.502C532.719 209.761 555.589 274.959 555.589 274.959C560.846 277.528 565.346 280.248 569.185 283.065C569.432 283.229 569.666 283.408 569.9 283.587C570.465 284.012 571.015 284.425 571.538 284.85C572.088 285.29 572.611 285.73 573.134 286.183C573.657 286.623 574.152 287.062 574.62 287.502C575.061 287.9 575.487 288.299 575.9 288.697C576.85 289.617 577.744 290.552 578.57 291.499C578.969 291.953 579.354 292.406 579.726 292.846C580.056 293.258 580.372 293.656 580.689 294.055C581.817 295.538 582.822 297.022 583.689 298.519C583.923 298.918 584.143 299.302 584.349 299.701C584.597 300.168 584.845 300.621 585.065 301.088C585.271 301.5 585.45 301.899 585.629 302.311C585.753 302.572 585.877 302.847 585.973 303.121C586.083 303.369 586.193 303.616 586.276 303.863C586.441 304.248 586.578 304.646 586.716 305.031C587.569 307.421 588.133 309.798 588.464 312.161C588.519 312.532 588.574 312.903 588.615 313.287C588.67 313.85 588.725 314.4 588.753 314.949C588.794 315.389 588.808 315.829 588.821 316.255C588.821 316.708 588.849 317.161 588.849 317.615C588.849 339.485 571.111 358.333 571.111 358.333H571.084Z" fill="#FDDDE0"/>
<path d="M571.084 358.333C600.614 416.017 544.126 437.97 544.126 437.97C544.319 438.327 547.14 445.072 549.507 451.419C550.663 454.51 551.708 457.504 552.3 459.606C559.937 486.889 544.883 491.354 539.241 491.56C538.883 491.574 538.581 491.574 538.306 491.56C538.14 491.56 537.975 491.532 537.824 491.519C533.379 490.983 528.59 489.032 523.953 485.694C508.679 474.676 494.436 454.922 493.996 454.304C491.354 456.364 488.753 458.205 486.18 459.853C484.625 460.829 483.098 461.749 481.584 462.601C481.075 462.889 480.579 463.15 480.07 463.425C479.066 463.961 478.075 464.456 477.084 464.936C476.589 465.17 476.093 465.403 475.598 465.623C474.607 466.077 473.644 466.489 472.667 466.873C471.69 467.258 470.727 467.629 469.777 467.972C468.814 468.302 467.864 468.618 466.929 468.907C466.461 469.044 465.993 469.181 465.525 469.319C464.135 469.717 462.759 470.047 461.397 470.349C460.489 470.528 459.58 470.706 458.686 470.857C457.365 471.077 456.058 471.256 454.764 471.393C429.431 474.017 412.175 459.95 411.212 459.153L411.17 459.112C369.792 499.693 325.083 460.444 325.083 460.444C313.703 467.079 246 481.93 222.869 422.707C222.58 421.979 222.304 421.237 222.043 420.509C251.587 446.693 308.102 436.142 317.185 430.853C317.185 430.853 383.621 470.102 425 429.521C425 429.521 518.449 432.145 531.962 366.919C531.962 366.919 580.936 343.057 569.171 283.064C569.418 283.229 569.652 283.408 569.886 283.586C570.451 284.012 571.001 284.425 571.524 284.85C572.074 285.29 572.597 285.73 573.12 286.183C573.643 286.623 574.138 287.062 574.606 287.502C575.047 287.9 575.473 288.298 575.886 288.697C576.836 289.617 577.73 290.551 578.556 291.499C578.955 291.953 579.34 292.406 579.712 292.846C580.042 293.258 580.358 293.656 580.675 294.055C581.803 295.538 582.808 297.022 583.675 298.519C583.909 298.918 584.129 299.302 584.335 299.701C584.583 300.168 584.831 300.621 585.051 301.088C585.257 301.5 585.436 301.899 585.615 302.311C585.739 302.572 585.863 302.847 585.959 303.121C586.069 303.369 586.179 303.616 586.262 303.863C586.427 304.248 586.564 304.646 586.702 305.031C587.555 307.421 588.119 309.798 588.45 312.161C588.505 312.532 588.56 312.903 588.601 313.287C588.656 313.85 588.711 314.4 588.739 314.949C588.78 315.389 588.794 315.829 588.807 316.254C588.807 316.708 588.835 317.161 588.835 317.615C588.835 339.485 571.097 358.333 571.097 358.333H571.084Z" fill="#F4CBD0"/>
<path fill-rule="evenodd" clip-rule="evenodd" d="M470.992 234.54C471.259 234.832 471.239 235.286 470.947 235.553L470.947 235.553L470.947 235.553L470.946 235.554L470.941 235.558L470.919 235.579C470.9 235.597 470.87 235.625 470.83 235.663C470.75 235.739 470.631 235.853 470.477 236.004C470.171 236.307 469.726 236.757 469.182 237.343C468.092 238.516 466.602 240.232 465.008 242.394C461.816 246.724 458.231 252.816 456.589 259.913C456.5 260.299 456.115 260.539 455.729 260.45C455.343 260.361 455.103 259.976 455.192 259.59C456.894 252.235 460.596 245.964 463.854 241.543C465.485 239.33 467.012 237.573 468.132 236.368C468.692 235.765 469.151 235.3 469.471 234.984C469.631 234.826 469.757 234.705 469.843 234.623C469.886 234.582 469.92 234.551 469.942 234.53L469.969 234.505L469.976 234.498L469.978 234.496L469.979 234.496C469.979 234.496 469.979 234.495 470.428 234.985L469.979 234.495C470.271 234.228 470.725 234.248 470.992 234.54Z" fill="#E5CAD0"/>
<path fill-rule="evenodd" clip-rule="evenodd" d="M437.392 275.524L437.392 275.523L437.396 275.515L437.412 275.48C437.426 275.449 437.449 275.4 437.481 275.335C437.543 275.205 437.639 275.013 437.769 274.767C438.028 274.275 438.425 273.571 438.967 272.733C440.053 271.056 441.715 268.852 444.021 266.744C448.62 262.541 455.782 258.712 466.109 260.214L466.109 260.214C486.899 263.221 495.565 279.483 494.67 291.487C494.64 291.882 494.937 292.226 495.331 292.255C495.726 292.285 496.07 291.989 496.099 291.594C497.048 278.87 487.88 261.915 466.315 258.795C455.478 257.22 447.901 261.256 443.054 265.686C440.637 267.896 438.899 270.201 437.764 271.954C437.196 272.831 436.778 273.573 436.501 274.097C436.363 274.359 436.259 274.568 436.189 274.712C436.154 274.785 436.128 274.841 436.11 274.88C436.101 274.9 436.094 274.915 436.089 274.926L436.084 274.938L436.082 274.942L436.081 274.944C436.081 274.944 436.081 274.944 436.695 275.216L436.081 274.944C435.921 275.306 436.085 275.73 436.447 275.89C436.809 276.05 437.232 275.886 437.392 275.524" fill="#E5CAD0"/>
<path fill-rule="evenodd" clip-rule="evenodd" d="M498.416 323.973C476.059 323.833 457.805 341.803 457.665 364.139L498.416 323.973ZM459.098 364.148C459.071 369.371 460.058 374.361 461.895 378.918C462.043 379.286 461.865 379.703 461.498 379.851C461.131 379.999 460.713 379.821 460.565 379.454C458.659 374.725 457.637 369.55 457.665 364.14L457.665 364.139M459.098 364.148C459.233 342.606 476.839 325.271 498.407 325.406L498.407 325.406C505.151 325.447 511.474 327.187 516.987 330.222C517.333 330.412 517.769 330.286 517.96 329.939C518.151 329.593 518.025 329.157 517.678 328.966C511.961 325.819 505.404 324.015 498.416 323.973" fill="#E5CAD0"/>
<path fill-rule="evenodd" clip-rule="evenodd" d="M409.051 341.188L408.544 340.681C408.264 340.961 408.264 341.415 408.544 341.695C408.823 341.975 409.277 341.975 409.557 341.695L409.557 341.695L409.557 341.695L409.559 341.693L409.57 341.683C409.58 341.673 409.596 341.657 409.617 341.637C409.661 341.595 409.727 341.532 409.815 341.451C409.992 341.287 410.259 341.046 410.614 340.745C411.324 340.143 412.383 339.3 413.769 338.346C416.542 336.438 420.618 334.091 425.824 332.344C436.216 328.857 451.154 327.744 469.289 337.384C469.638 337.57 470.072 337.437 470.258 337.087C470.444 336.738 470.311 336.304 469.962 336.118C451.452 326.279 436.102 327.383 425.368 330.985C420.011 332.783 415.815 335.198 412.956 337.165C411.526 338.149 410.429 339.022 409.687 339.652C409.316 339.967 409.033 340.221 408.842 340.398C408.746 340.487 408.673 340.556 408.623 340.604C408.599 340.628 408.579 340.646 408.566 340.659L408.551 340.675L408.546 340.679L408.545 340.68C408.544 340.681 408.544 340.681 409.051 341.188Z" fill="#E5CAD0"/>
<path fill-rule="evenodd" clip-rule="evenodd" d="M571.63 357.872C571.876 358.182 571.825 358.633 571.516 358.88C559.766 368.24 546.058 369.332 535.351 368.113C529.994 367.503 525.368 366.313 522.081 365.275C520.437 364.756 519.126 364.275 518.224 363.922C517.773 363.745 517.423 363.601 517.186 363.5C517.067 363.45 516.976 363.411 516.914 363.383C516.883 363.37 516.86 363.359 516.843 363.352L516.824 363.343L516.819 363.341L516.818 363.34C516.817 363.34 516.817 363.34 517.107 362.702L516.817 363.34C516.456 363.176 516.297 362.751 516.461 362.391C516.625 362.031 517.049 361.871 517.41 362.035L517.414 362.037L517.428 362.043C517.442 362.049 517.463 362.059 517.491 362.071C517.547 362.096 517.633 362.133 517.745 362.181C517.971 362.276 518.308 362.416 518.746 362.587C519.622 362.929 520.902 363.4 522.513 363.908C525.735 364.926 530.268 366.092 535.513 366.689C546.012 367.884 559.282 366.793 570.623 357.758C570.932 357.512 571.383 357.563 571.63 357.872Z" fill="#E2BFC7"/>
<path fill-rule="evenodd" clip-rule="evenodd" d="M424.75 415.133C425.139 415.063 425.511 415.323 425.581 415.713L424.875 415.838C425.581 415.713 425.581 415.713 425.581 415.714L425.582 415.72L425.585 415.737C425.587 415.751 425.591 415.771 425.595 415.798C425.604 415.851 425.616 415.929 425.631 416.031C425.662 416.233 425.704 416.531 425.75 416.913C425.842 417.679 425.951 418.788 426.022 420.171C426.165 422.938 426.157 426.809 425.551 431.237C424.339 440.09 420.734 451.211 411.135 460.145C410.845 460.414 410.391 460.398 410.122 460.108C409.852 459.818 409.868 459.365 410.158 459.095C419.439 450.458 422.947 439.689 424.13 431.043C424.722 426.722 424.73 422.942 424.591 420.245C424.521 418.897 424.415 417.821 424.326 417.084C424.282 416.716 424.242 416.433 424.214 416.243C424.2 416.148 424.188 416.077 424.18 416.03L424.172 415.978L424.17 415.966L424.169 415.964" fill="#E2BFC7"/>
<path fill-rule="evenodd" clip-rule="evenodd" d="M317.88 428.781C317.88 428.781 317.88 428.781 317.88 428.781L317.88 428.783L317.878 428.793L317.873 428.835C317.868 428.872 317.861 428.93 317.852 429.006C317.834 429.157 317.809 429.383 317.78 429.676C317.723 430.261 317.653 431.112 317.603 432.167C317.502 434.28 317.478 437.206 317.787 440.462C318.408 447.003 320.359 454.737 325.575 459.937C325.855 460.216 325.856 460.67 325.576 460.95C325.297 461.231 324.843 461.231 324.563 460.952C318.99 455.395 316.991 447.248 316.36 440.598C316.043 437.258 316.068 434.261 316.171 432.099C316.223 431.017 316.295 430.143 316.353 429.537C316.383 429.234 316.409 428.998 316.428 428.837C316.438 428.757 316.446 428.695 316.451 428.652L316.457 428.604L316.459 428.591L316.46 428.586C316.46 428.586 316.46 428.585 317.166 428.682L316.46 428.586C316.514 428.194 316.875 427.919 317.268 427.973C317.66 428.027 317.934 428.389 317.88 428.781Z" fill="#E2BFC7"/>
<path fill-rule="evenodd" clip-rule="evenodd" d="M253.245 328.826L253.246 328.826L253.252 328.82L253.28 328.793C253.306 328.768 253.346 328.731 253.4 328.681C253.508 328.581 253.672 328.433 253.892 328.245C254.332 327.867 254.993 327.329 255.869 326.694C257.621 325.424 260.23 323.768 263.641 322.242C270.458 319.193 280.485 316.658 293.303 318.761C293.693 318.825 294.062 318.561 294.126 318.17C294.19 317.78 293.925 317.411 293.535 317.347C280.4 315.192 270.088 317.788 263.056 320.934C259.541 322.506 256.847 324.214 255.028 325.534C254.118 326.193 253.426 326.756 252.959 327.156C252.725 327.357 252.548 327.516 252.428 327.627C252.368 327.683 252.322 327.726 252.29 327.756C252.275 327.771 252.262 327.783 252.254 327.791L252.244 327.801L252.241 327.804L252.24 327.805C252.239 327.806 252.239 327.806 252.722 328.296L252.239 327.806C251.957 328.084 251.954 328.538 252.232 328.819C252.51 329.101 252.963 329.104 253.245 328.827L253.245 328.826Z" fill="#E5CAD0"/>
<path fill-rule="evenodd" clip-rule="evenodd" d="M323.955 365.77C314.879 359.945 302.455 356.95 287.372 362.021C272.301 367.09 264.822 376.824 261.095 385.285C259.229 389.522 258.303 393.445 257.844 396.307C257.615 397.738 257.502 398.901 257.447 399.703C257.42 400.104 257.406 400.415 257.4 400.623C257.397 400.727 257.396 400.806 257.395 400.858C257.395 400.883 257.394 400.903 257.394 400.915L257.394 400.928L257.394 400.93L257.394 400.93L257.394 400.93C257.396 401.326 257.076 401.648 256.681 401.65C256.285 401.651 255.963 401.332 255.961 400.936L256.678 400.933C255.961 400.936 255.961 400.936 255.961 400.935L255.961 400.933L255.961 400.928L255.961 400.909C255.961 400.893 255.961 400.87 255.962 400.84C255.962 400.78 255.964 400.693 255.967 400.58C255.974 400.354 255.988 400.025 256.017 399.605C256.075 398.764 256.192 397.558 256.429 396.08C256.902 393.126 257.857 389.081 259.784 384.707C263.643 375.944 271.397 365.882 286.915 360.662L286.915 360.662C302.437 355.443 315.312 358.52 324.73 364.564C333.65 370.289 339.481 378.684 341.532 385.203C341.642 385.127 341.762 385.045 341.892 384.958C342.669 384.437 343.804 383.731 345.243 382.982C348.119 381.483 352.226 379.802 357.144 379.082C367.029 377.634 380.063 380.09 392.826 395.363C393.08 395.667 393.039 396.119 392.735 396.373C392.432 396.626 391.98 396.586 391.726 396.282C379.279 381.387 366.738 379.125 357.352 380.5C352.633 381.191 348.68 382.807 345.905 384.253C344.519 384.975 343.43 385.653 342.69 386.149C342.32 386.396 342.038 386.598 341.85 386.737C341.756 386.806 341.685 386.859 341.639 386.895C341.616 386.912 341.599 386.926 341.588 386.934L341.577 386.943L341.575 386.945C341.385 387.096 341.132 387.142 340.902 387.065C340.672 386.989 340.495 386.801 340.434 386.567C338.791 380.307 333.066 371.618 323.955 365.77Z" fill="#E5CAD0"/>
<path d="M335.775 329.099C335.775 329.099 335.775 287.983 381.86 285.826C427.573 283.683 335.775 329.099 335.775 329.099Z" fill="#FDDDE0"/>
<path fill-rule="evenodd" clip-rule="evenodd" d="M382.576 285.808C382.586 286.204 382.273 286.532 381.878 286.542C359.484 287.099 348.185 297.756 342.443 308.229C339.561 313.486 338.071 318.715 337.303 322.634C336.919 324.592 336.716 326.219 336.609 327.353C336.556 327.92 336.526 328.364 336.51 328.664C336.502 328.814 336.498 328.928 336.495 329.003C336.494 329.041 336.493 329.069 336.492 329.087L336.492 329.107L336.492 329.111C336.492 329.111 336.492 329.111 336.492 329.111M382.576 285.808C382.566 285.412 382.238 285.099 381.842 285.109L382.576 285.808ZM381.842 285.109C358.894 285.679 347.151 296.659 341.186 307.54L381.842 285.109ZM341.186 307.54C338.214 312.961 336.684 318.339 335.896 322.358L341.186 307.54ZM335.896 322.358C335.502 324.369 335.293 326.044 335.182 327.219L335.896 322.358ZM335.182 327.219C335.127 327.806 335.096 328.269 335.079 328.587L335.182 327.219ZM335.079 328.587C335.07 328.746 335.065 328.869 335.062 328.953L335.079 328.587ZM335.062 328.953C335.061 328.995 335.06 329.028 335.059 329.05L335.062 328.953ZM335.059 329.05L335.059 329.076L335.059 329.05ZM335.059 329.076L335.059 329.083L335.059 329.076ZM335.059 329.083L335.059 329.085L335.059 329.083ZM335.059 329.085C335.059 329.086 335.059 329.087 335.775 329.099L335.059 329.085Z" fill="#E5CAD0"/>
<path d="M203.948 502.742C234.256 502.742 258.826 478.214 258.826 447.957C258.826 417.7 234.256 393.171 203.948 393.171C173.64 393.171 149.07 417.7 149.07 447.957C149.07 478.214 173.64 502.742 203.948 502.742Z" fill="url(#paint0_linear_242_28)"/>
<path d="M258.827 447.957C258.827 478.221 234.264 502.742 203.949 502.742C185.289 502.742 168.818 493.442 158.91 479.237C167.8 485.447 178.615 489.073 190.271 489.073C220.572 489.073 245.149 464.552 245.149 434.302C245.149 422.68 241.53 411.882 235.323 403.021C249.538 412.912 258.827 429.356 258.827 447.957Z" fill="#7162DD"/>
<mask id="mask0_242_28" style="mask-type:luminance" maskUnits="userSpaceOnUse" x="149" y="393" width="110" height="110">
<path d="M203.948 502.742C234.256 502.742 258.826 478.214 258.826 447.957C258.826 417.7 234.256 393.171 203.948 393.171C173.64 393.171 149.07 417.7 149.07 447.957C149.07 478.214 173.64 502.742 203.948 502.742Z" fill="white"/>
</mask>
<g mask="url(#mask0_242_28)">
<path opacity="0.25" fill-rule="evenodd" clip-rule="evenodd" d="M187.318 395.074C187.709 395.138 187.974 395.506 187.91 395.897C187.91 395.897 187.91 395.897 187.91 395.897L187.91 395.898L187.909 395.905L187.904 395.933C187.9 395.96 187.894 396 187.887 396.054C187.872 396.161 187.85 396.32 187.827 396.525C187.78 396.936 187.723 397.529 187.687 398.25C187.614 399.695 187.621 401.64 187.938 403.66C188.577 407.732 190.42 411.872 195.123 413.141L195.124 413.141C198.588 414.08 201.779 414.393 204.801 414.689C206.202 414.826 207.566 414.96 208.905 415.151C213.089 415.748 216.868 416.906 220.017 420.608L220.018 420.608C222.963 424.078 227.121 427.806 232.561 429.221C237.962 430.625 244.765 429.782 253.099 423.841C253.422 423.611 253.869 423.686 254.099 424.008C254.329 424.331 254.254 424.778 253.931 425.008C245.326 431.142 238.093 432.14 232.2 430.608C226.346 429.086 221.952 425.101 218.925 421.537C216.103 418.219 212.733 417.145 208.702 416.57C207.477 416.395 206.174 416.267 204.808 416.133C201.73 415.83 198.329 415.495 194.749 414.524M187.91 395.897C187.91 395.897 187.91 395.897 187.91 395.897L187.91 395.897L187.91 395.897" fill="#2A2D60"/>
<path opacity="0.25" fill-rule="evenodd" clip-rule="evenodd" d="M163.083 411.64C163.083 411.64 163.083 411.64 163.083 411.64L163.087 411.647L163.103 411.669C163.118 411.689 163.139 411.718 163.168 411.757C163.226 411.835 163.312 411.95 163.423 412.098C163.647 412.393 163.973 412.816 164.382 413.325C165.2 414.345 166.347 415.706 167.662 417.078C168.98 418.453 170.452 419.824 171.922 420.871C173.409 421.931 174.811 422.602 176.001 422.693C176.514 422.732 177.022 422.76 177.527 422.788C179.643 422.904 181.695 423.017 183.714 423.957C186.26 425.142 188.699 427.585 191.503 432.649C196.929 442.447 209.063 449.719 220.161 448.891C220.525 448.863 220.887 448.837 221.248 448.81C226.557 448.42 231.515 448.056 236.925 446.31C242.688 444.45 249 441.007 256.73 434.216C257.028 433.955 257.48 433.985 257.742 434.282C258.003 434.579 257.974 435.032 257.676 435.293C249.83 442.186 243.35 445.742 237.365 447.674C231.786 449.474 226.667 449.85 221.383 450.238C221.012 450.265 220.641 450.292 220.268 450.32C208.55 451.195 195.915 443.575 190.25 433.344C187.508 428.393 185.256 426.255 183.109 425.256C181.363 424.443 179.649 424.346 177.566 424.229C177.034 424.199 176.478 424.167 175.891 424.122C174.308 424.001 172.644 423.146 171.09 422.039C169.519 420.919 167.977 419.479 166.627 418.07C165.274 416.659 164.1 415.264 163.264 414.222C162.845 413.701 162.511 413.267 162.281 412.963C162.166 412.811 162.076 412.691 162.016 412.609C161.985 412.568 161.962 412.536 161.946 412.515L161.928 412.49L161.922 412.481C161.922 412.481 161.921 412.48 162.502 412.06L161.921 412.48C161.689 412.16 161.761 411.712 162.082 411.48C162.403 411.248 162.851 411.32 163.083 411.64Z" fill="#2A2D60"/>
<path opacity="0.25" fill-rule="evenodd" clip-rule="evenodd" d="M153.547 469.325L153.547 469.325L153.547 469.325L153.551 469.323L153.569 469.312C153.586 469.302 153.613 469.286 153.649 469.265C153.721 469.223 153.83 469.161 153.975 469.083C154.264 468.926 154.695 468.704 155.25 468.449C156.36 467.939 157.963 467.298 159.925 466.784C163.85 465.754 169.18 465.234 174.869 467.234L174.869 467.234C177.848 468.28 180.444 469.402 182.941 470.481C190.14 473.594 196.51 476.348 208.834 475.873L208.835 475.873C225.147 475.232 236.875 479.961 242.413 486.923C242.66 487.233 243.111 487.284 243.421 487.038C243.73 486.791 243.782 486.34 243.535 486.031C237.598 478.568 225.326 473.791 208.778 474.441C196.801 474.902 190.779 472.299 183.663 469.224C181.134 468.131 178.466 466.978 175.344 465.881C169.308 463.76 163.672 464.318 159.561 465.397C157.504 465.937 155.822 466.608 154.651 467.147C154.065 467.416 153.607 467.652 153.292 467.822C153.135 467.908 153.013 467.976 152.93 468.025C152.889 468.049 152.856 468.068 152.834 468.081L152.808 468.097L152.8 468.101L152.798 468.103L152.797 468.103C152.797 468.104 152.796 468.104 153.161 468.697L152.796 468.104C152.459 468.311 152.354 468.752 152.561 469.09C152.769 469.427 153.21 469.532 153.547 469.325Z" fill="#2A2D60"/>
<path opacity="0.25" fill-rule="evenodd" clip-rule="evenodd" d="M160.309 482.845L160.311 482.843L160.323 482.829C160.335 482.815 160.354 482.792 160.38 482.762C160.433 482.701 160.514 482.61 160.624 482.495C160.844 482.265 161.176 481.94 161.616 481.571C162.499 480.833 163.806 479.926 165.506 479.255C168.871 477.925 173.864 477.48 180.285 481.309C186.923 485.267 191.835 487.535 196.021 488.783C200.223 490.035 203.664 490.251 207.341 490.147L207.342 490.147C207.648 490.138 207.956 490.128 208.268 490.118C211.693 490.007 215.521 489.884 219.243 490.527C223.285 491.224 227.141 492.816 230.145 496.275C230.405 496.574 230.858 496.605 231.156 496.346C231.455 496.086 231.487 495.634 231.228 495.335C227.943 491.553 223.743 489.849 219.487 489.114C215.612 488.445 211.641 488.574 208.237 488.684C207.919 488.695 207.607 488.705 207.3 488.714C203.725 488.816 200.445 488.606 196.431 487.409C192.403 486.209 187.606 484.005 181.02 480.078C174.217 476.022 168.759 476.428 164.979 477.922C163.105 478.662 161.667 479.659 160.696 480.472C160.21 480.879 159.839 481.242 159.587 481.505C159.462 481.637 159.365 481.744 159.299 481.821C159.266 481.859 159.24 481.889 159.222 481.911L159.201 481.936L159.194 481.944L159.192 481.947L159.191 481.948C159.191 481.949 159.19 481.949 159.734 482.384L159.19 481.949C158.943 482.258 158.993 482.709 159.302 482.956C159.611 483.204 160.061 483.154 160.309 482.845L160.309 482.845Z" fill="#2A2D60"/>
<path opacity="0.25" fill-rule="evenodd" clip-rule="evenodd" d="M174.914 438.933C170.754 438.933 167.388 442.295 167.388 446.446C167.388 450.596 170.754 453.958 174.914 453.958C179.075 453.958 182.44 450.596 182.44 446.446C182.44 442.295 179.075 438.933 174.914 438.933ZM165.955 446.446C165.955 441.502 169.965 437.5 174.914 437.5C179.864 437.5 183.874 441.502 183.874 446.446C183.874 451.39 179.864 455.391 174.914 455.391C169.965 455.391 165.955 451.39 165.955 446.446Z" fill="#2A2D60"/>
<path opacity="0.25" fill-rule="evenodd" clip-rule="evenodd" d="M247.075 457.617C243.665 457.617 240.678 461.023 240.678 465.527C240.678 470.031 243.665 473.438 247.075 473.438C250.485 473.438 253.473 470.031 253.473 465.527C253.473 461.023 250.485 457.617 247.075 457.617ZM239.244 465.527C239.244 460.502 242.627 456.183 247.075 456.183C251.523 456.183 254.906 460.502 254.906 465.527C254.906 470.552 251.523 474.871 247.075 474.871C242.627 474.871 239.244 470.552 239.244 465.527Z" fill="#2A2D60"/>
</g>
<path fill-rule="evenodd" clip-rule="evenodd" d="M407.87 9.54056C392.559 17.3296 374.005 30.8726 355.868 48.3355C337.731 65.7984 323.504 83.8185 315.154 98.8119C310.976 106.315 308.301 113.004 307.315 118.452C306.324 123.93 307.078 127.909 309.398 130.311C311.719 132.714 315.675 133.612 321.195 132.823C326.685 132.038 333.479 129.612 341.141 125.716C356.454 117.93 375.011 104.391 393.155 86.9277C410.348 70.353 424.042 53.2909 432.53 38.7748C429.007 36.5193 426.663 32.5591 426.663 28.0537C426.663 21.0153 432.389 15.3017 439.434 15.3017C440.271 15.3017 441.096 15.381 441.897 15.5362C442.557 10.7021 441.748 7.14999 439.611 4.93866L439.61 4.93829C437.29 2.53546 433.334 1.63851 427.814 2.42897C422.325 3.21504 415.531 5.64287 407.87 9.54056ZM441.157 3.44432C438.124 0.304334 433.294 -0.527828 427.509 0.300567C421.693 1.13338 414.662 3.67255 406.895 7.62418C391.347 15.5337 372.623 29.2186 354.377 46.7866C336.131 64.3546 321.755 82.5398 313.276 97.7657C309.04 105.373 306.244 112.296 305.199 118.07C304.161 123.813 304.819 128.664 307.852 131.805C310.884 134.945 315.714 135.778 321.5 134.951C327.316 134.12 334.347 131.582 342.116 127.632C357.665 119.726 376.392 106.045 394.646 88.4769L394.646 88.4763C412.313 71.4454 426.365 53.8514 434.931 38.9193L435.488 37.9485L434.496 37.4311C431.122 35.6722 428.813 32.1302 428.813 28.0537C428.813 22.2062 433.573 17.4518 439.434 17.4518C440.488 17.4518 441.513 17.6022 442.471 17.8878L443.628 18.2327L443.837 17.0439C444.838 11.3602 444.167 6.5584 441.157 3.44432Z" fill="#7162DD"/>
<path d="M375.599 112.581C399.911 112.581 419.619 92.9055 419.619 68.6345C419.619 44.3635 399.911 24.688 375.599 24.688C351.287 24.688 331.578 44.3635 331.578 68.6345C331.578 92.9055 351.287 112.581 375.599 112.581Z" fill="url(#paint1_linear_242_28)"/>
<path d="M419.619 68.6345C419.619 92.9088 399.914 112.581 375.599 112.581C366.049 112.581 357.215 109.545 350.004 104.38C353.706 105.396 357.6 105.932 361.618 105.932C385.919 105.932 405.625 86.2598 405.625 61.9993C405.625 47.2451 398.345 34.1944 387.185 26.2266C405.872 31.2957 419.619 48.3578 419.619 68.6345Z" fill="#7162DD"/>
<mask id="mask1_242_28" style="mask-type:luminance" maskUnits="userSpaceOnUse" x="331" y="24" width="89" height="89">
<path d="M375.597 112.581C399.909 112.581 419.617 92.9055 419.617 68.6345C419.617 44.3635 399.909 24.688 375.597 24.688C351.285 24.688 331.576 44.3635 331.576 68.6345C331.576 92.9055 351.285 112.581 375.597 112.581Z" fill="white"/>
</mask>
<g mask="url(#mask1_242_28)">
<path fill-rule="evenodd" clip-rule="evenodd" d="M398.334 30.1722C398.651 30.4091 398.716 30.8582 398.479 31.1753L397.905 30.7462L397.331 30.3172C397.568 30.0001 398.017 29.9352 398.334 30.1722ZM391.601 45.4888C390.995 44.8783 390.86 43.7609 391.244 42.2742C391.615 40.8328 392.421 39.2815 393.305 38.0989C394.234 36.8557 395.527 35.1248 396.589 33.7047L398.478 31.1761L398.479 31.1753L397.905 30.7462L397.331 30.3172L397.33 30.318L395.44 32.8466C394.379 34.2668 393.086 35.9977 392.157 37.241C391.182 38.545 390.282 40.2632 389.856 41.9162C389.441 43.5232 389.416 45.3247 390.585 46.5002L390.587 46.5022C390.894 46.809 391.237 47.1239 391.574 47.4332C391.734 47.5804 391.893 47.7263 392.046 47.8694C392.535 48.3273 392.994 48.7837 393.38 49.2669C394.142 50.221 394.581 51.2305 394.376 52.4878C394.295 52.9943 393.929 53.5267 393.215 54.0696C392.508 54.6069 391.541 55.0915 390.431 55.5196C388.216 56.3742 385.578 56.9486 383.697 57.2969C381.65 57.6759 379.768 58.8245 378.885 60.5801C377.976 62.3903 378.225 64.6442 380.058 66.9756C380.369 67.3708 380.696 67.7843 381.034 68.2124C382.565 70.1474 384.334 72.3842 385.92 74.6107C387.873 77.3504 389.479 79.9811 390.047 81.9523C390.666 84.0958 391.665 86.4008 393.147 88.0537C394.654 89.7344 396.701 90.7718 399.297 90.2019C401.876 89.6357 403.474 87.8563 404.406 85.498C405.326 83.1686 405.626 80.217 405.626 77.1243C405.626 74.1083 405.941 71.5526 406.424 69.5645C406.913 67.5544 407.556 66.1963 408.159 65.5073C408.907 64.6531 411.173 61.4804 413.215 58.5771C414.245 57.1135 415.229 55.7012 415.957 54.6549C416.32 54.1318 416.619 53.7 416.828 53.3991L417.154 52.9281C417.154 52.928 417.154 52.9276 416.564 52.5203L417.154 52.9281C417.379 52.6024 417.297 52.1555 416.972 51.9306C416.646 51.7056 416.2 51.7874 415.975 52.1131L416.564 52.5203C415.975 52.1131 415.975 52.113 415.975 52.1131L415.649 52.583C415.441 52.8834 415.143 53.3144 414.78 53.8368C414.053 54.8817 413.07 56.2916 412.043 57.7524C409.971 60.6978 407.764 63.7826 407.081 64.5632C406.253 65.509 405.54 67.132 405.031 69.2259C404.517 71.342 404.192 74.0134 404.192 77.1243C404.192 80.1586 403.893 82.8944 403.073 84.9713C402.264 87.0193 400.979 88.3653 398.99 88.8019C397.017 89.2348 395.466 88.4932 394.214 87.0968C392.937 85.6725 392.016 83.6018 391.424 81.5555C390.781 79.323 389.037 76.5136 387.088 73.7789C385.478 71.52 383.681 69.2482 382.15 67.3129C381.814 66.8877 381.491 66.4787 381.185 66.0897C379.605 64.0801 379.566 62.4187 380.166 61.2238C380.794 59.9743 382.221 59.0279 383.958 58.7063C385.861 58.354 388.604 57.7607 390.947 56.8569C392.117 56.4058 393.223 55.8635 394.082 55.2108C394.933 54.5637 395.626 53.7424 395.791 52.7172C396.082 50.925 395.414 49.5168 394.5 48.3726C394.048 47.8066 393.528 47.2936 393.025 46.8229C392.85 46.6586 392.679 46.5021 392.514 46.3501C392.191 46.0539 391.887 45.7748 391.601 45.4888Z" fill="black"/>
<path fill-rule="evenodd" clip-rule="evenodd" d="M373.481 75.9349C374.084 76.926 374.607 77.7851 375.068 78.396C375.74 79.2856 376.032 80.7126 376.155 82.2502C376.281 83.829 376.237 85.6858 376.12 87.5651C376.002 89.448 375.808 91.3765 375.627 93.1015C375.603 93.3256 375.58 93.5459 375.557 93.7621C375.404 95.2201 375.27 96.4888 375.211 97.4319C375.064 99.7831 374.25 101.38 373.059 102.408C371.885 103.421 370.433 103.808 369.139 103.926L369.135 103.926C367.576 104.059 366.114 103.079 365.15 101.697C364.17 100.293 363.606 98.3561 363.878 96.2909C364.118 94.4662 364.054 92.8598 363.654 91.6217C363.26 90.4053 362.555 89.5717 361.487 89.1698C360.036 88.6235 358.755 87.6359 357.519 86.3385C356.286 85.0431 355.066 83.4048 353.749 81.5185C352.33 79.4869 352.072 77.5711 352.698 75.9175C353.309 74.3047 354.706 73.0893 356.301 72.2931C357.84 71.525 359.974 70.696 361.704 70.0648C362.573 69.7477 363.348 69.4777 363.905 69.287C364.184 69.1916 364.408 69.116 364.563 69.0641C364.594 69.054 364.621 69.0448 364.646 69.0365C364.687 69.012 364.731 68.9914 364.776 68.9753C366.047 68.5265 367.24 68.8215 368.282 69.4751C369.303 70.1154 370.223 71.1225 371.04 72.2058C371.862 73.2961 372.617 74.5163 373.29 75.6204C373.355 75.7266 373.419 75.8315 373.481 75.9349ZM365.252 70.3459L365.237 70.3507L365.192 70.3655C365.153 70.3787 365.094 70.3982 365.018 70.4236C364.865 70.4745 364.644 70.5491 364.369 70.6432C363.818 70.8316 363.053 71.0983 362.195 71.4113C360.471 72.0405 358.402 72.8463 356.941 73.5756C355.536 74.2769 354.477 75.2663 354.039 76.425C353.615 77.543 353.715 78.9654 354.924 80.6979C356.235 82.5758 357.403 84.1383 358.557 85.35C359.709 86.5597 360.816 87.3855 361.992 87.8283C363.553 88.4155 364.52 89.6425 365.017 91.1805C365.508 92.6968 365.554 94.5386 365.299 96.4779C365.075 98.1768 365.543 99.7566 366.325 100.877C367.122 102.019 368.15 102.57 369.012 102.498C370.139 102.395 371.259 102.068 372.122 101.323C372.967 100.594 373.653 99.3873 373.781 97.3425C373.842 96.3662 373.979 95.062 374.132 93.6106C374.155 93.3942 374.178 93.1746 374.201 92.9522C374.382 91.2282 374.573 89.3257 374.689 87.4754C374.805 85.6215 374.844 83.843 374.726 82.3643C374.605 80.8444 374.326 79.7918 373.924 79.2596C373.417 78.5872 372.854 77.6622 372.264 76.6916C372.198 76.5836 372.132 76.4751 372.066 76.3663C371.392 75.26 370.67 74.0958 369.895 73.0687C369.116 72.0347 368.321 71.1916 367.521 70.6895C366.789 70.2309 366.096 70.0798 365.392 70.2824C365.349 70.3083 365.301 70.3297 365.252 70.3459Z" fill="black"/>
<path fill-rule="evenodd" clip-rule="evenodd" d="M353.584 29.2878C353.98 29.2821 354.305 29.5984 354.311 29.9942L353.594 30.0044C354.311 29.9942 354.311 29.9941 354.311 29.9942L354.315 30.2889C354.317 30.4776 354.321 30.7494 354.324 31.0818C354.332 31.7465 354.341 32.654 354.347 33.625C354.359 35.557 354.359 37.7699 354.31 38.8031C354.273 39.5852 354.708 40.7737 355.513 42.0667C356.299 43.3293 357.358 44.5635 358.386 45.4157C359.667 46.4776 360.304 48.0943 360.4 49.674C360.497 51.2499 360.064 52.8997 359.063 54.06C357.322 56.0782 350.877 62.1231 349.913 62.9758C349.325 63.4957 348.31 64.0251 347.13 64.1702C345.923 64.3185 344.528 64.0649 343.262 62.9839C342.186 62.0648 340.444 60.6997 338.545 59.6727C336.611 58.6271 334.676 58.0216 333.145 58.3832C332.76 58.4742 332.374 58.2356 332.283 57.8504C332.192 57.4652 332.431 57.0791 332.816 56.9881C334.89 56.498 337.235 57.3349 339.226 58.4118C341.252 59.5072 343.081 60.9446 344.193 61.8938C345.115 62.6811 346.094 62.8533 346.955 62.7475C347.842 62.6385 348.588 62.2338 348.964 61.9019C349.926 61.0511 356.306 55.0619 357.978 53.1237C358.683 52.3058 359.048 51.0501 358.97 49.7617C358.891 48.4771 358.378 47.2707 357.471 46.5193C356.312 45.5581 355.155 44.2028 354.296 42.8243C353.457 41.4763 352.819 39.9723 352.878 38.7348C352.925 37.7487 352.926 35.5792 352.914 33.6339C352.908 32.6661 352.899 31.7611 352.891 31.098C352.887 30.7665 352.884 30.4955 352.881 30.3075L352.877 30.0149C352.872 29.6191 353.188 29.2934 353.584 29.2878Z" fill="black"/>
</g>
<path fill-rule="evenodd" clip-rule="evenodd" d="M393.14 86.9139C411.058 69.6704 425.158 51.8926 433.543 37.005L435.417 38.0602C426.904 53.1755 412.657 71.1155 394.631 88.4632C376.385 106.031 357.658 119.713 342.107 127.62C334.337 131.571 327.305 134.11 321.488 134.943C315.701 135.772 310.871 134.942 307.838 131.805L309.384 130.311C311.704 132.711 315.661 133.606 321.183 132.815C326.674 132.028 333.469 129.601 341.132 125.704C356.446 117.916 375.003 104.377 393.14 86.9141L393.14 86.9139Z" fill="#7162DD"/>
<path fill-rule="evenodd" clip-rule="evenodd" d="M439.434 17.4518C433.572 17.4518 428.812 22.2062 428.812 28.0537C428.812 32.1302 431.122 35.6722 434.495 37.4311L434.504 37.4356L434.504 37.4356C435.974 38.2189 437.644 38.6556 439.434 38.6556C445.309 38.6556 450.055 33.9149 450.055 28.0537C450.055 23.2552 446.859 19.1987 442.47 17.8878M426.662 28.0537C426.662 21.0153 432.388 15.3017 439.434 15.3017C440.691 15.3017 441.924 15.481 443.085 15.8273L443.085 15.8274C448.356 17.4015 452.205 22.2744 452.205 28.0537C452.205 35.1058 446.493 40.8057 439.434 40.8057C437.29 40.8057 435.274 40.2816 433.497 39.3354C429.442 37.2195 426.662 32.9598 426.662 28.0537ZM439.434 17.4518C440.488 17.4518 441.512 17.6021 442.47 17.8876L439.434 17.4518Z" fill="#7162DD"/>
<path fill-rule="evenodd" clip-rule="evenodd" d="M552.011 28.6914C553.311 28.9125 554.601 29.1392 555.901 29.3677C556.593 29.4895 557.288 29.6117 557.989 29.7339C558.163 29.7642 558.289 29.9167 558.286 30.0933C558.28 30.4715 558.274 30.8496 558.268 31.2275C558.249 32.3823 558.231 33.5354 558.19 34.6874C558.19 34.6877 558.19 34.6879 558.19 34.6882L557.832 34.6753L558.19 34.6868C558.19 34.687 558.19 34.6872 558.19 34.6874C558.184 34.8761 558.209 34.9532 558.231 34.9897C558.248 35.0169 558.289 35.066 558.443 35.1193L558.327 35.4583L558.444 35.1195C558.444 35.1194 558.443 35.1194 558.443 35.1193C558.893 35.2738 559.365 35.4634 559.787 35.7337L559.787 35.734C559.95 35.8388 560.025 35.8341 560.066 35.8256C560.13 35.812 560.221 35.7622 560.386 35.6172C560.385 35.618 560.384 35.6188 560.383 35.6196L560.625 35.8842L560.389 35.6149C560.388 35.6157 560.387 35.6164 560.386 35.6172C561.366 34.7216 562.373 33.8403 563.379 32.987L563.384 32.9827L563.384 32.9827C563.524 32.8691 563.719 32.801 563.878 32.7708C563.963 32.7547 564.058 32.7455 564.151 32.7521C564.236 32.7581 564.365 32.7801 564.478 32.8673L564.483 32.8716L564.483 32.8716C565.764 33.9066 567.026 34.9614 568.299 36.0253C568.533 36.2205 568.767 36.4161 569.001 36.6119C569.137 36.7257 569.17 36.9219 569.077 37.0735C568.809 37.5134 568.545 37.9539 568.281 38.3929C567.75 39.2757 567.223 40.1527 566.68 41.0082L566.677 41.0123L566.677 41.0123C566.578 41.1637 566.565 41.2416 566.566 41.2801C566.568 41.3104 566.581 41.3734 566.691 41.4887L566.695 41.4923L566.695 41.4923C566.891 41.704 567.055 41.9421 567.202 42.1556L567.208 42.1637L566.914 42.3682L567.209 42.165L567.208 42.1637C567.407 42.4499 567.623 42.6266 567.849 42.7209C568.075 42.8147 568.34 42.8388 568.658 42.773C568.657 42.773 568.657 42.773 568.657 42.7731L568.73 43.1239L568.658 42.773C569.246 42.6503 569.829 42.5324 570.416 42.4137C571.093 42.2766 571.777 42.1384 572.482 41.9901C572.656 41.9536 572.83 42.05 572.892 42.2166C573.267 43.2315 573.639 44.2509 574.014 45.2756C574.353 46.2022 574.694 47.1332 575.039 48.0691C575.1 48.2349 575.031 48.4204 574.876 48.5063L574.875 48.5069C573.542 49.2481 572.204 49.9913 570.853 50.7072M570.598 51.09C570.598 51.0894 570.598 51.0887 570.597 51.0881L570.258 51.2016L570.599 51.0914C570.598 51.0909 570.598 51.0905 570.598 51.09ZM552.011 28.6914C551.946 28.6534 551.869 28.6368 551.791 28.6456C551.683 28.6579 551.586 28.719 551.528 28.8115C551.521 28.8227 551.514 28.8342 551.507 28.8458C551.46 28.9186 551.41 28.9983 551.383 29.0787C551.383 29.0783 551.383 29.078 551.383 29.0777L551.661 29.173L551.66 29.1734L551.382 29.0805C551.382 29.0799 551.382 29.0793 551.383 29.0787C551.286 29.3588 551.181 29.6449 551.074 29.9356C550.811 30.6474 550.538 31.387 550.368 32.1352C550.228 32.7281 550.045 33.1345 549.786 33.3754C549.547 33.597 549.189 33.726 548.568 33.6339L548.568 33.6338L548.56 33.6328C548.448 33.6188 548.348 33.6342 548.274 33.6503C548.235 33.6588 548.172 33.6759 548.132 33.6867C548.116 33.691 548.104 33.6942 548.099 33.6956C548.092 33.6973 548.085 33.6992 548.079 33.7012C547.931 33.7474 547.872 33.7229 547.84 33.704C547.787 33.6727 547.715 33.5972 547.621 33.422C547.001 32.2395 546.368 31.0845 545.707 29.9297C545.618 29.7586 545.45 29.6106 545.31 29.5173C545.234 29.4663 545.145 29.4178 545.052 29.3865C544.978 29.3613 544.831 29.3223 544.678 29.379C542.846 30.0118 541.014 30.6856 539.158 31.3718C538.992 31.4331 538.896 31.6058 538.931 31.7789C539.023 32.2336 539.115 32.683 539.206 33.1287C539.429 34.2212 539.647 35.2915 539.852 36.3629C539.864 36.4259 539.865 36.5216 539.849 36.6099C539.84 36.6528 539.83 36.6844 539.821 36.7042C539.819 36.7086 539.817 36.7118 539.816 36.714C539.384 37.0684 538.911 37.3873 538.42 37.718C538.37 37.7522 538.319 37.7866 538.267 37.8211C537.177 37.1568 536.092 36.5063 535.005 35.854C534.676 35.6566 534.347 35.4591 534.018 35.261C533.866 35.1699 533.671 35.2031 533.557 35.339C532.968 36.0476 532.385 36.7446 531.805 37.438C531.061 38.3277 530.322 39.2115 529.58 40.1064C529.467 40.2428 529.471 40.4414 529.589 40.5737C529.873 40.8923 530.153 41.2194 530.434 41.5474C531.018 42.2276 531.604 42.9112 532.232 43.5295C532.564 43.8608 532.742 44.1259 532.795 44.3666C532.842 44.5811 532.802 44.8398 532.53 45.2008C532.352 45.4324 532.24 45.7298 532.178 45.9889C532.162 46.0472 532.146 46.0765 532.137 46.0896C532.13 46.1003 532.126 46.1025 532.123 46.1043C532.105 46.1142 532.054 46.1308 531.899 46.1312C531.178 46.1039 530.456 46.0901 529.741 46.0765L529.734 46.0763C529.013 46.0626 528.297 46.0489 527.586 46.0216L527.583 46.0215C527.345 46.0138 527.087 46.0418 526.885 46.218C526.689 46.3892 526.622 46.6363 526.585 46.8564L526.585 46.8564L526.585 46.8611C526.324 48.5591 526.022 50.2584 525.706 51.9461L525.706 51.9461L525.705 51.9511C525.665 52.1817 525.663 52.4321 525.806 52.6478C525.944 52.8568 526.167 52.9529 526.364 53.0134C526.687 53.1165 527.004 53.2328 527.328 53.3519C527.471 53.4044 527.615 53.4575 527.762 53.5103C528.236 53.6801 528.727 53.8419 529.236 53.9433L529.236 53.9435C529.896 54.0739 530.312 54.2839 530.56 54.5758C530.801 54.8605 530.933 55.2828 530.889 55.9551C530.868 56.1884 530.841 56.2983 530.803 56.369C530.773 56.4249 530.719 56.4876 530.559 56.5705L530.555 56.5722C529.477 57.1426 528.407 57.7386 527.342 58.3314C527.044 58.4976 526.746 58.6635 526.449 58.8285C526.294 58.9143 526.225 59.1 526.286 59.2659C526.619 60.1695 526.947 61.0632 527.273 61.9522C527.66 63.0066 528.045 64.0544 528.433 65.1045C528.494 65.2705 528.667 65.3669 528.841 65.3315C529.224 65.2532 529.6 65.1901 529.981 65.1263C530.197 65.09 530.415 65.0534 530.637 65.0137C531.235 64.9063 531.838 64.7789 532.421 64.5776C533.045 64.3658 533.482 64.3651 533.814 64.5014C534.147 64.6381 534.449 64.9426 534.74 65.5024L534.74 65.5027C534.84 65.6957 534.879 65.7901 534.887 65.867C534.893 65.918 534.889 65.9909 534.798 66.1326L534.796 66.1348C534.062 67.2942 533.357 68.4639 532.634 69.6657C532.514 69.8639 532.394 70.0629 532.274 70.2629C532.183 70.4143 532.215 70.6097 532.351 70.723C533.149 71.3894 533.941 72.0489 534.732 72.7083C535.523 73.3677 536.314 74.027 537.112 74.6932C537.247 74.8057 537.444 74.804 537.576 74.6891C537.78 74.513 537.943 74.3776 538.108 74.2402L538.116 74.2336C538.383 73.9982 538.648 73.7626 538.913 73.5276C539.704 72.8254 540.49 72.1276 541.3 71.4515C541.333 71.4247 541.405 71.3862 541.493 71.3632C541.535 71.3524 541.57 71.3475 541.597 71.3469C541.611 71.3465 541.619 71.3474 541.622 71.3478C542.073 71.5208 542.386 71.6427 542.614 71.7592C542.84 71.8743 542.942 71.9649 543.002 72.0543C543.062 72.1443 543.105 72.275 543.126 72.5279C543.147 72.7807 543.142 73.109 543.135 73.5778L543.135 73.6024H543.135V73.6076C543.135 73.8421 543.128 74.0808 543.121 74.3255L543.121 74.3281C543.114 74.5691 543.107 74.8159 543.107 75.0602C543.103 75.2885 543.097 75.5191 543.091 75.7519C543.078 76.2367 543.066 76.7311 543.066 77.2343C543.066 77.4088 543.192 77.5579 543.363 77.5875C543.731 77.6506 544.096 77.7133 544.459 77.7757C546.152 78.0665 547.81 78.3511 549.486 78.6451C549.661 78.6757 549.831 78.5739 549.888 78.4056C550.009 78.0423 550.145 77.6728 550.282 77.2988C550.58 76.4888 550.885 75.6578 551.067 74.8244L551.068 74.8233C551.197 74.2227 551.394 73.8687 551.654 73.6604C551.911 73.4539 552.29 73.3425 552.891 73.3612C553.156 73.3746 553.29 73.4039 553.381 73.4519C553.458 73.4931 553.542 73.5686 553.646 73.7713C553.646 73.7714 553.646 73.7715 553.646 73.7717L553.965 73.6077L553.646 73.7706C553.646 73.7708 553.646 73.771 553.646 73.7713C554.15 74.7582 554.691 75.7269 555.234 76.6979C555.45 77.0847 555.666 77.4718 555.88 77.8606C555.965 78.0148 556.15 78.0844 556.315 78.0248C558.187 77.3518 560.006 76.6915 561.798 76.0034C561.922 75.9568 562.009 75.8682 562.061 75.8013C562.119 75.7281 562.164 75.645 562.198 75.5651C562.262 75.4165 562.314 75.2128 562.287 75.0267L562.287 75.0267L562.286 75.0193C562.271 74.928 562.256 74.8362 562.241 74.7441C562.093 73.8349 561.938 72.8896 561.655 71.9893C561.655 71.9895 561.655 71.9897 561.655 71.9898L561.313 72.0964L561.655 71.9888C561.655 71.989 561.655 71.9892 561.655 71.9893M563.27 69.5839C564.382 70.2897 565.515 70.9666 566.662 71.6522C566.881 71.7833 567.101 71.9147 567.321 72.0467C567.472 72.1372 567.667 72.1044 567.78 71.9694C568.448 71.1721 569.109 70.3784 569.769 69.5851L569.771 69.5835C570.431 68.7906 571.09 67.9982 571.757 67.2024C571.871 67.0664 571.868 66.8676 571.751 66.7347C571.502 66.4539 571.257 66.1644 571.011 65.874C570.451 65.2127 569.887 64.5461 569.264 63.9632L569.264 63.9629C568.853 63.579 568.623 63.2501 568.558 62.9439C568.497 62.6639 568.56 62.3319 568.913 61.8946L568.913 61.8937C569.007 61.7771 569.072 61.6266 569.096 61.4883C569.136 61.2921 569.2 61.2483 569.24 61.2275C569.314 61.1893 569.443 61.1693 569.696 61.1761C570.848 61.2179 572.001 61.2359 573.169 61.2542C573.539 61.2599 573.91 61.2657 574.283 61.2723C574.46 61.2755 574.612 61.1494 574.643 60.9753C574.751 60.3499 574.858 59.7308 574.965 59.1147C575.21 57.7005 575.453 56.3018 575.702 54.8763C575.733 54.7019 575.631 54.5314 575.463 54.4749C575.121 54.3595 574.775 54.2332 574.426 54.1059C573.652 53.8234 572.865 53.5362 572.073 53.3528M570.652 51.6634C570.652 51.6617 570.652 51.6601 570.652 51.6584L570.299 51.6L570.65 51.6703C570.651 51.668 570.651 51.6657 570.652 51.6634ZM569.696 61.1761C569.696 61.1761 569.697 61.1761 569.697 61.1761L569.707 60.8179L569.694 61.176C569.695 61.176 569.695 61.176 569.696 61.1761ZM569.096 61.4883C569.097 61.486 569.097 61.4836 569.097 61.4813L568.744 61.4223L569.095 61.4927C569.096 61.4912 569.096 61.4897 569.096 61.4883ZM563.27 69.5839C563.269 69.5836 563.268 69.5832 563.268 69.5828L563.46 69.2802L563.271 69.5848C563.271 69.5845 563.27 69.5842 563.27 69.5839ZM552.891 73.3612C552.892 73.3612 552.893 73.3613 552.894 73.3613L552.905 73.0031L552.887 73.361C552.889 73.3611 552.89 73.3611 552.891 73.3612ZM543.107 75.0602C543.107 75.0614 543.107 75.0626 543.107 75.0638H543.465L543.107 75.0569C543.107 75.058 543.107 75.0591 543.107 75.0602ZM541.622 71.3478C541.623 71.3479 541.623 71.348 541.624 71.348C541.625 71.3482 541.622 71.3477 541.617 71.3457C541.619 71.3464 541.621 71.3471 541.622 71.3478ZM541.3 71.4515C541.3 71.4514 541.301 71.4513 541.301 71.4512L541.071 71.176L541.3 71.4515ZM532.421 64.5776C532.422 64.5775 532.422 64.5774 532.422 64.5773L532.306 64.2386L532.421 64.5779C532.421 64.5778 532.421 64.5777 532.421 64.5776ZM530.889 55.9551C530.889 55.9563 530.888 55.9574 530.888 55.9586L531.246 55.9823L530.889 55.9516C530.889 55.9528 530.889 55.9539 530.889 55.9551ZM526.364 53.0134C526.364 53.0136 526.365 53.0138 526.366 53.014L526.471 52.6715L526.362 53.013C526.363 53.0131 526.363 53.0133 526.364 53.0134ZM531.899 46.1312C531.897 46.1312 531.895 46.1312 531.893 46.1312V46.4896L531.906 46.1315C531.904 46.1314 531.902 46.1313 531.899 46.1312ZM532.178 45.9889C532.178 45.991 532.177 45.9931 532.177 45.9952L532.526 46.0774L532.18 45.9841C532.179 45.9858 532.179 45.9873 532.178 45.9889ZM532.53 45.2008C532.529 45.2012 532.529 45.2016 532.529 45.202L532.815 45.418L532.531 45.1993C532.53 45.1998 532.53 45.2003 532.53 45.2008ZM532.232 43.5295C532.232 43.5298 532.233 43.5301 532.233 43.5305L532.484 43.275L532.231 43.5286C532.232 43.5289 532.232 43.5292 532.232 43.5295ZM538.267 37.8211C538.204 37.864 538.14 37.9072 538.076 37.9508L538.278 38.247L538.464 37.9411C538.399 37.9011 538.333 37.8611 538.267 37.8211ZM539.825 36.7066C539.817 36.7136 539.813 36.7184 539.813 36.7183C539.813 36.7183 539.814 36.717 539.816 36.714C539.819 36.7115 539.822 36.709 539.825 36.7066ZM539.825 36.7066C539.825 36.7065 539.825 36.7064 539.825 36.7063L539.825 36.7066ZM539.852 36.3629C539.852 36.3631 539.852 36.3634 539.852 36.3636L540.204 36.2963L539.852 36.3624C539.852 36.3626 539.852 36.3627 539.852 36.3629ZM544.678 29.379C544.675 29.3804 544.671 29.3817 544.667 29.3832L544.8 29.716L544.683 29.3773C544.682 29.3778 544.68 29.3784 544.678 29.379ZM545.707 29.9297C545.706 29.9273 545.704 29.925 545.703 29.9226L545.392 30.1006L545.712 29.9402C545.711 29.9367 545.709 29.9332 545.707 29.9297ZM547.621 33.422C547.621 33.4215 547.621 33.421 547.62 33.4205L547.305 33.59L547.622 33.4236C547.622 33.4231 547.622 33.4225 547.621 33.422ZM550.368 32.1352C550.368 32.1357 550.368 32.1363 550.368 32.1369L550.717 32.2162L550.369 32.1338C550.369 32.1342 550.368 32.1347 550.368 32.1352ZM552.023 29.4204C551.948 29.4077 551.874 29.395 551.8 29.3824C551.726 29.37 551.659 29.3351 551.606 29.2826L551.579 29.2552L551.66 29.1734M552.023 29.4204C551.926 29.6966 551.827 29.9662 551.729 30.2323C551.473 30.9252 551.226 31.5945 551.067 32.2956L551.066 32.2986C550.917 32.9276 550.694 33.5099 550.273 33.9008C549.832 34.3097 549.236 34.4559 548.471 34.344C548.472 34.344 548.472 34.344 548.471 34.344L548.516 33.9884L548.463 34.3428C548.466 34.3432 548.468 34.3436 548.471 34.344C548.468 34.344 548.455 34.3443 548.427 34.3505C548.409 34.3544 548.389 34.3596 548.362 34.3669C548.358 34.3681 548.353 34.3694 548.348 34.3708C548.329 34.3762 548.305 34.3825 548.282 34.3885C548.285 34.3875 548.289 34.3865 548.292 34.3854L548.185 34.0433L548.272 34.391C548.275 34.3902 548.279 34.3893 548.282 34.3885C547.993 34.4764 547.719 34.4651 547.475 34.3208C547.249 34.1873 547.101 33.9679 546.989 33.7594L546.987 33.7563L546.987 33.7563C546.37 32.5789 545.739 31.4288 545.081 30.2787C545.078 30.2729 545.075 30.267 545.072 30.2611C545.072 30.2621 545.069 30.2566 545.06 30.2451C545.052 30.234 545.04 30.2203 545.024 30.2047C544.993 30.1731 544.954 30.1409 544.913 30.1139C544.889 30.0977 544.868 30.0858 544.851 30.0776C544.873 30.07 544.895 30.0623 544.917 30.0547C544.923 30.0529 544.928 30.0509 544.933 30.0488C544.928 30.051 544.922 30.0529 544.917 30.0546C544.876 30.0682 544.844 30.067 544.832 30.066C544.823 30.0653 544.818 30.064 544.818 30.064C544.818 30.0639 544.819 30.0643 544.822 30.0652C544.829 30.0676 544.839 30.0716 544.851 30.0776C543.141 30.6688 541.431 31.2961 539.694 31.9376C539.765 32.2874 539.836 32.635 539.907 32.9808C540.13 34.0754 540.35 35.1527 540.556 36.229L540.556 36.2301C540.586 36.3869 540.585 36.5726 540.553 36.7416C540.524 36.8951 540.456 37.1165 540.28 37.2601C539.817 37.6415 539.305 37.9862 538.809 38.3201C538.698 38.3949 538.588 38.4692 538.479 38.5433C538.363 38.6224 538.211 38.6262 538.091 38.5529C536.936 37.8484 535.79 37.1606 534.638 36.4693C534.396 36.3243 534.154 36.1791 533.912 36.0336C533.387 36.6643 532.868 37.2841 532.353 37.9005C531.676 38.7099 531.004 39.5134 530.328 40.3276C530.56 40.5916 530.784 40.8534 531.005 41.1117C531.577 41.7782 532.128 42.4218 532.736 43.0195L532.738 43.0214C533.093 43.3765 533.396 43.7637 533.495 44.2131C533.599 44.6887 533.46 45.1577 533.101 45.634L533.099 45.6368L533.099 45.6368C533.003 45.7603 532.923 45.9537 532.875 46.1597L532.872 46.1708C532.807 46.41 532.686 46.6109 532.471 46.7306C532.279 46.8373 532.063 46.8479 531.893 46.8479C531.888 46.8479 531.884 46.8478 531.879 46.8477C531.162 46.8204 530.444 46.8067 529.724 46.793L529.72 46.7929C529.001 46.7792 528.278 46.7654 527.559 46.7378C527.559 46.7378 527.558 46.7378 527.558 46.7378L527.572 46.3797L527.56 46.7378C527.56 46.7378 527.56 46.7378 527.559 46.7378C527.411 46.7331 527.365 46.7534 527.357 46.758C527.357 46.7577 527.357 46.7575 527.357 46.7575C527.357 46.7575 527.357 46.7576 527.357 46.7577C527.357 46.7579 527.357 46.7581 527.356 46.7583C527.356 46.7587 527.355 46.7589 527.355 46.7589C527.355 46.759 527.356 46.7587 527.356 46.7583C527.356 46.7582 527.357 46.7581 527.357 46.758C527.353 46.7627 527.321 46.8028 527.293 46.9722C527.293 46.9714 527.293 46.9706 527.293 46.9698L526.939 46.9154L527.292 46.9744C527.292 46.9737 527.293 46.973 527.293 46.9722C527.031 48.6794 526.727 50.3854 526.411 52.0754C526.411 52.0747 526.411 52.0739 526.411 52.0731L526.058 52.0121L526.41 52.0781C526.411 52.0772 526.411 52.0763 526.411 52.0754C526.39 52.1961 526.4 52.2417 526.404 52.2525C526.403 52.2516 526.403 52.2512 526.403 52.2512C526.403 52.2512 526.403 52.2515 526.403 52.2521C526.404 52.2528 526.404 52.2533 526.404 52.2538C526.405 52.2548 526.405 52.2552 526.405 52.2552C526.405 52.2551 526.405 52.2546 526.404 52.2538C526.404 52.2534 526.404 52.253 526.404 52.2525C526.41 52.2589 526.446 52.289 526.576 52.3289L526.58 52.33C526.92 52.4382 527.26 52.5635 527.592 52.6853C527.731 52.7365 527.869 52.7871 528.004 52.8356C528.469 53.0022 528.92 53.1495 529.375 53.2404M552.023 29.4204C552.035 29.3859 552.047 29.3513 552.059 29.3166C552.06 29.3143 552.062 29.3106 552.065 29.3055C552.075 29.2881 552.089 29.267 552.11 29.2333C552.117 29.2212 552.126 29.2075 552.136 29.1918M552.023 29.4204C553.276 29.634 554.519 29.8525 555.774 30.0731C556.367 30.1775 556.963 30.2823 557.564 30.3872C557.56 30.666 557.555 30.9441 557.551 31.2216C557.533 32.3749 557.515 33.518 557.474 34.6623L557.473 34.6637C557.466 34.9004 557.488 35.146 557.618 35.3602C557.753 35.5837 557.966 35.7131 558.21 35.7971L558.211 35.7972C558.641 35.945 559.05 36.1125 559.399 36.3365C559.663 36.5065 559.931 36.5868 560.214 36.5266C560.474 36.4716 560.685 36.3088 560.862 36.1534L560.862 36.1534L560.867 36.1487C561.839 35.2605 562.838 34.3855 563.838 33.5374C563.84 33.5363 563.844 33.5333 563.852 33.529C563.862 33.5232 563.876 33.5164 563.894 33.5094C563.929 33.495 563.97 33.4828 564.011 33.475C564.039 33.4697 564.062 33.4675 564.079 33.4669C565.34 34.4856 566.581 35.5234 567.838 36.5743C567.994 36.7041 568.149 36.8342 568.305 36.9644C568.087 37.3233 567.873 37.6799 567.66 38.0342C567.133 38.9114 566.614 39.7742 566.076 40.6218C565.942 40.827 565.839 41.0575 565.851 41.3135C565.863 41.5775 565.993 41.7956 566.171 41.9821C566.329 42.1516 566.465 42.3486 566.619 42.5715L566.62 42.5729C566.879 42.9461 567.195 43.2251 567.574 43.3826C567.954 43.5407 568.369 43.5647 568.803 43.4748L568.803 43.4747C569.376 43.3554 569.959 43.2372 570.55 43.1177C571.137 42.9989 571.731 42.8788 572.326 42.7548C572.666 43.6763 573.002 44.5949 573.34 45.5189C573.644 46.3492 573.949 47.1839 574.26 48.0289C573.014 48.7209 571.771 49.4097 570.516 50.0744L570.514 50.0754C570.331 50.1741 570.115 50.3069 569.982 50.5175C569.831 50.7563 569.825 51.0276 569.917 51.3118L569.918 51.3151C569.951 51.4139 569.957 51.4812 569.947 51.5296L569.945 51.5415C569.823 52.2845 569.961 52.865 570.363 53.2927C570.742 53.6976 571.309 53.9095 571.91 54.0507L571.911 54.0509C572.66 54.2243 573.377 54.4863 574.128 54.7609C574.395 54.8582 574.665 54.9571 574.943 55.0542C574.712 56.3781 574.486 57.6816 574.258 58.998C574.169 59.5128 574.079 60.0297 573.989 60.5505C573.716 60.5459 573.445 60.5417 573.174 60.5374C572.008 60.5192 570.865 60.5013 569.72 60.4598L569.717 60.4597C569.461 60.4528 569.164 60.4603 568.912 60.5903C568.626 60.7376 568.463 61.0024 568.393 61.3519L568.39 61.3633C568.389 61.3714 568.385 61.3874 568.376 61.4066C568.368 61.4259 568.359 61.4393 568.354 61.4455L568.634 61.6694L568.355 61.4446C567.91 61.9964 567.738 62.5436 567.857 63.0947C567.97 63.6196 568.332 64.0736 568.774 64.4864C569.366 65.0403 569.886 65.6544 570.431 66.2994C570.62 66.5222 570.812 66.7487 571.01 66.9777C570.41 67.6954 569.815 68.4104 569.22 69.1251L569.218 69.1265L569.217 69.1278C568.622 69.8429 568.027 70.5576 567.427 71.2747C567.294 71.1949 567.16 71.1153 567.028 71.0359C565.88 70.3499 564.756 69.6783 563.652 68.9776L563.649 68.9756C563.435 68.8436 563.189 68.7227 562.918 68.7227C562.636 68.7227 562.398 68.8515 562.193 69.0622C561.477 69.3508 561.032 69.7827 560.851 70.3612C560.673 70.9275 560.772 71.5639 560.971 72.2031L560.971 72.204C561.238 73.0526 561.384 73.9469 561.534 74.8652C561.549 74.9526 561.563 75.0403 561.578 75.1282C561.578 75.1309 561.578 75.1467 561.572 75.1764C561.566 75.2097 561.555 75.2477 561.539 75.2836C561.527 75.3122 561.515 75.3338 561.505 75.348C559.824 75.9931 558.117 76.6145 556.36 77.2471C556.191 76.9412 556.021 76.6381 555.853 76.3366C555.313 75.37 554.782 74.4192 554.284 73.4445L554.283 73.4435C554.14 73.1656 553.969 72.9527 553.717 72.8188C553.477 72.6918 553.206 72.6593 552.923 72.6452L552.923 72.6452L552.917 72.6449C552.226 72.6229 551.649 72.745 551.205 73.1014C550.763 73.4561 550.513 73.9947 550.367 74.6712C550.195 75.457 549.919 76.2081 549.631 76.9915C549.523 77.2841 549.414 77.5811 549.308 77.8862C547.732 77.6105 546.17 77.3423 544.578 77.0689C544.314 77.0236 544.05 76.9781 543.784 76.9325C543.788 76.5441 543.797 76.1636 543.807 75.7823C543.813 75.5461 543.819 75.3096 543.824 75.0707H543.824V75.0638C543.824 74.8293 543.831 74.5905 543.837 74.3458L543.838 74.3433C543.844 74.102 543.851 73.8548 543.851 73.6102C543.851 73.6093 543.851 73.6084 543.851 73.6076L543.852 73.5569C543.859 73.1166 543.864 72.7574 543.84 72.4695C543.815 72.1652 543.756 71.8941 543.599 71.6577C543.442 71.4209 543.214 71.2608 542.94 71.1208C542.669 70.9829 542.315 70.8459 541.874 70.6766C541.681 70.6027 541.466 70.6297 541.313 70.6695C541.15 70.7117 540.975 70.79 540.842 70.9005L540.842 70.9008C540.022 71.5847 539.224 72.2931 538.43 72.9973C538.168 73.2299 537.907 73.462 537.645 73.6926C537.547 73.7744 537.448 73.8571 537.339 73.9489C536.621 73.3498 535.908 72.7557 535.195 72.1616L535.191 72.1577C534.478 71.5633 533.764 70.969 533.046 70.3697C533.114 70.2576 533.181 70.1458 533.248 70.0343C533.972 68.8325 534.671 67.671 535.401 66.5194C535.557 66.277 535.628 66.0411 535.6 65.7869C535.574 65.5583 535.468 65.3506 535.376 65.1727M563.838 33.5378L563.611 33.2603L563.843 33.5336C563.841 33.5349 563.84 33.5361 563.838 33.5374C563.838 33.5376 563.838 33.5377 563.838 33.5378ZM559.399 36.3365C559.399 36.3367 559.399 36.3368 559.399 36.3369L559.593 36.0353L559.399 36.3365ZM557.564 30.3872C557.665 30.4048 557.766 30.4224 557.866 30.4399L557.928 30.0869L557.57 30.0805C557.568 30.1828 557.566 30.2851 557.564 30.3872Z" fill="#D4CEEA"/>
<path fill-rule="evenodd" clip-rule="evenodd" d="M546.947 43.2682C552.651 41.1808 558.925 44.0921 561.016 49.7727C561.03 49.8093 561.037 49.847 561.038 49.8847C563.06 55.54 560.158 61.7442 554.487 63.8195C548.796 65.9072 542.536 62.9944 540.446 57.2869L540.445 57.2863C538.383 51.6202 541.284 45.3422 546.947 43.2682L546.947 43.2682ZM547.194 43.9412C541.904 45.8785 539.191 51.7443 541.119 57.0406C543.074 62.378 548.923 65.0974 554.24 63.1465L554.241 63.1464C559.573 61.1949 562.284 55.3425 560.33 50.034C560.317 49.9985 560.31 49.9618 560.308 49.9252C558.319 44.6784 552.494 42.0014 547.194 43.9412Z" fill="#D4CEEA"/>
<path d="M199.64 347.411C199.64 349.912 197.618 351.931 195.113 351.931C192.609 351.931 190.586 349.912 190.586 347.411C190.586 344.911 192.609 342.892 195.113 342.892C197.618 342.892 199.64 344.911 199.64 347.411Z" fill="#F1EDFC"/>
<path d="M336.105 113.034C336.105 115.535 334.082 117.554 331.578 117.554C329.074 117.554 327.051 115.535 327.051 113.034C327.051 110.534 329.074 108.515 331.578 108.515C334.082 108.515 336.105 110.534 336.105 113.034Z" fill="#F1EDFC"/>
<path d="M516.949 65.3512C516.949 67.8515 514.926 69.8709 512.422 69.8709C509.917 69.8709 507.895 67.8515 507.895 65.3512C507.895 62.851 509.917 60.8316 512.422 60.8316C514.926 60.8316 516.949 62.851 516.949 65.3512Z" fill="#F1EDFC"/>
<path d="M321.34 485.694C321.34 488.194 319.317 490.214 316.812 490.214C314.308 490.214 312.285 488.194 312.285 485.694C312.285 483.194 314.308 481.174 316.812 481.174C319.317 481.174 321.34 483.194 321.34 485.694Z" fill="#F1EDFC"/>
<path d="M217.006 329.759C220.859 329.759 223.983 326.64 223.983 322.794C223.983 318.947 220.859 315.829 217.006 315.829C213.153 315.829 210.029 318.947 210.029 322.794C210.029 326.64 213.153 329.759 217.006 329.759Z" fill="#F1EDFC"/>
<path d="M578.059 262.637C581.912 262.637 585.035 259.518 585.035 255.672C585.035 251.825 581.912 248.707 578.059 248.707C574.206 248.707 571.082 251.825 571.082 255.672C571.082 259.518 574.206 262.637 578.059 262.637Z" fill="#F1EDFC"/>
<path fill-rule="evenodd" clip-rule="evenodd" d="M60.9391 383.095C63.363 382.568 65.7151 382.985 67.9955 383.551L67.9958 383.551C72.7855 384.743 76.8659 386.703 80.0478 389.624C83.2324 392.548 85.4989 396.419 86.6835 401.4L86.684 401.402C87.0102 402.813 87.2623 404.26 87.206 405.835C87.2101 405.852 87.213 405.869 87.2146 405.887C87.3586 407.453 87.0266 409.044 86.5531 410.56C85.9829 412.395 84.9905 413.939 83.3014 415.078L83.301 415.078C79.705 417.494 76.4323 420.323 73.274 423.298L73.2713 423.3C67.6502 428.488 60.7777 427.223 56.289 424.78C56.2781 424.774 56.2674 424.768 56.2571 424.761C51.8496 421.725 48.703 417.749 46.9702 412.657C44.6818 405.958 48.7686 400.418 53.0211 398.451L53.0215 398.451C54.5931 397.726 55.6408 396.803 56.2895 395.681C56.9396 394.557 57.2085 393.2 57.1618 391.575C57.1414 390.999 57.1244 390.424 57.1074 389.851L57.1067 389.825C57.0895 389.242 57.0723 388.663 57.0517 388.087L57.0517 388.086C57.0088 386.725 57.2712 385.618 57.9284 384.772C58.5855 383.927 59.5957 383.394 60.9371 383.095L60.9391 383.095L60.9391 383.095ZM86.509 406.047C86.4919 406.002 86.4838 405.953 86.486 405.904C86.5527 404.386 86.3132 402.98 85.9859 401.564C84.8311 396.71 82.6323 392.97 79.563 390.152C76.4908 387.331 72.5281 385.417 67.823 384.246C65.5627 383.686 63.3465 383.305 61.0922 383.795C59.8471 384.073 59.0137 384.544 58.4944 385.212C57.9751 385.881 57.7284 386.8 57.768 388.063C57.7887 388.641 57.8059 389.222 57.8231 389.804L57.8238 389.829C57.8408 390.403 57.8578 390.977 57.8781 391.551L57.8781 391.554H57.8781C57.9276 393.267 57.646 394.767 56.9099 396.04C56.1722 397.315 54.9977 398.329 53.322 399.101C49.3182 400.953 45.5063 406.156 47.6486 412.425L47.6487 412.426C49.3265 417.356 52.367 421.207 56.6481 424.16C60.9934 426.519 67.4859 427.663 72.7839 422.775C75.9549 419.788 79.2594 416.93 82.901 414.483C82.9011 414.483 82.9012 414.483 82.9013 414.483L83.1011 414.78L82.9008 414.483C82.9009 414.483 82.9009 414.483 82.901 414.483C84.4317 413.451 85.3381 412.055 85.8688 410.347L85.869 410.346C86.3211 408.899 86.6189 407.446 86.509 406.047Z" fill="#D4CEEA"/>
<path d="M64.7724 385.19C64.0706 385.423 63.3963 385.726 62.8321 386.165C62.2817 386.605 61.8964 387.209 61.7312 387.869C61.5523 388.528 61.5248 389.215 61.5936 389.929L61.7588 392.141C61.8964 393.57 61.9652 395.218 61.4423 396.757C60.9469 398.309 59.7772 399.642 58.4424 400.48C57.7544 400.906 57.0251 401.208 56.4609 401.524C55.8692 401.881 55.2912 402.266 54.7683 402.733C53.695 403.626 52.8005 404.738 52.085 405.947C50.6814 408.406 50.3649 411.429 51.0667 414.3C50.4474 412.953 50.1447 411.442 50.1172 409.917C50.1309 408.393 50.5025 406.868 51.1355 405.453C51.7822 404.038 52.7592 402.801 53.9014 401.744C54.4656 401.208 55.1261 400.768 55.7866 400.356C56.5022 399.958 57.1489 399.683 57.7131 399.312C58.8828 398.598 59.7772 397.581 60.2313 396.331C60.7267 395.067 60.7129 393.693 60.7267 392.182L60.7542 389.97C60.7542 389.215 60.8368 388.404 61.1258 387.663C61.4285 386.921 61.9789 386.275 62.6532 385.89C63.3137 385.492 64.0568 385.3 64.7999 385.203L64.7724 385.19Z" fill="#D4CEEA"/>
<path fill-rule="evenodd" clip-rule="evenodd" d="M71.6925 385.022C71.7773 384.862 71.9685 384.79 72.1378 384.855C79.5322 387.697 84.6854 392.923 86.6828 401.399C87.0283 402.835 87.2836 404.307 87.2025 405.913C87.3405 407.471 87.0095 409.053 86.5387 410.56C85.9696 412.392 84.992 413.952 83.2998 415.078C79.7043 417.494 76.4319 420.336 73.259 423.312L73.2569 423.314C67.6353 428.502 60.7763 427.223 56.275 424.78C56.2629 424.774 56.2511 424.767 56.2398 424.759C55.6295 424.329 55.0297 423.884 54.456 423.409C54.3256 423.301 54.2886 423.117 54.3672 422.967C54.4458 422.817 54.6186 422.742 54.7816 422.788C58.6965 423.889 63.3326 423.617 67.3202 419.945C70.2022 417.219 73.2021 414.61 76.4691 412.33C76.5549 412.27 76.6626 412.251 76.764 412.277C77.1075 412.366 77.4764 412.416 77.8576 412.416L77.8612 412.416C80.3911 412.442 82.369 410.483 82.3568 408.038C82.3438 406.855 81.8728 405.79 81.1113 405.017C81.0367 404.942 80.9996 404.837 81.0099 404.731C81.0633 404.185 81.0763 403.642 81.0367 403.102C81.0357 403.088 81.0355 403.074 81.0361 403.06C81.1028 401.556 80.8632 400.137 80.523 398.737L80.5224 398.735C79.1106 392.758 76.0908 388.453 71.8052 385.484C71.6561 385.381 71.6077 385.183 71.6925 385.022ZM74.4327 386.65C77.6977 389.592 80.0245 393.51 81.2196 398.569C81.5658 399.993 81.8208 401.479 81.753 403.071C81.7902 403.595 81.7816 404.117 81.7381 404.636C82.5589 405.528 83.0593 406.72 83.0735 408.031L83.0735 408.033C83.0883 410.89 80.774 413.162 77.8559 413.133C77.4718 413.133 77.0992 413.089 76.7473 413.01C73.5708 415.241 70.641 417.79 67.8108 420.467L67.8074 420.47L67.8074 420.47C64.1322 423.856 59.9247 424.5 56.1933 423.845C56.3394 423.951 56.4867 424.056 56.635 424.16C60.9952 426.52 67.4729 427.676 72.7697 422.788C75.9538 419.802 79.2585 416.93 82.9006 414.483L82.9019 414.482C84.429 413.466 85.3227 412.059 85.8544 410.347L85.8545 410.346C86.3168 408.867 86.6178 407.381 86.4865 405.953C86.4849 405.935 86.4846 405.918 86.4855 405.901C86.5654 404.385 86.3263 402.981 85.9858 401.566L85.9854 401.565C84.2854 394.349 80.2504 389.578 74.4327 386.65Z" fill="#D4CEEA"/>
<path fill-rule="evenodd" clip-rule="evenodd" d="M61.1099 406.537C63.6872 406.522 65.8177 408.632 65.8177 411.195V411.197H65.8177C65.8027 413.675 63.7177 415.766 61.2296 415.826L61.2294 415.826C58.6802 415.885 56.4617 413.765 56.4317 411.24L56.4317 411.238C56.4168 408.677 58.5306 406.537 61.1099 406.537ZM65.101 411.194C65.1003 409.032 63.2961 407.241 61.113 407.253L61.1109 407.253C58.9298 407.253 57.1364 409.069 57.1484 411.233C57.1741 413.351 59.056 415.159 61.2127 415.109C63.3201 415.059 65.0878 413.277 65.101 411.194Z" fill="#D4CEEA"/>
<path fill-rule="evenodd" clip-rule="evenodd" d="M72.7379 407.917C72.7976 405.158 75.1264 402.951 77.9537 402.951C79.3785 402.951 80.6792 403.559 81.6215 404.514L81.6216 404.514C82.5112 405.417 83.0584 406.659 83.0732 408.031L83.0732 408.033C83.088 410.89 80.7737 413.162 77.8555 413.133C77.412 413.133 76.9836 413.074 76.5848 412.971C74.3241 412.395 72.6789 410.357 72.7379 407.917ZM77.9537 403.668C75.497 403.668 73.505 405.582 73.4544 407.933L73.4544 407.934C73.4035 410.028 74.8128 411.78 76.7623 412.276L76.7637 412.277C77.1073 412.366 77.4762 412.416 77.8573 412.416H77.8609V412.416C80.3909 412.442 82.3687 410.483 82.3565 408.038C82.3435 406.855 81.8725 405.79 81.111 405.017C80.2919 404.187 79.1708 403.668 77.9537 403.668ZM73.0961 407.925L73.0962 407.925L73.0961 407.925Z" fill="#D4CEEA"/>
<path fill-rule="evenodd" clip-rule="evenodd" d="M70.7783 388.708C72.6083 388.671 74.0605 390.111 74.073 391.978L70.7783 388.708ZM70.7637 387.991C72.9727 387.946 74.7206 389.666 74.7878 391.871C74.798 391.904 74.8035 391.94 74.8035 391.976C74.8035 394.24 73.0964 396.015 70.8422 396.03L70.8398 396.03C68.6402 396.03 66.7827 394.243 66.7523 392.05M70.7637 387.991L70.7636 387.991L70.7637 387.991ZM70.7782 388.708C68.9582 388.745 67.4443 390.294 67.469 392.04L67.469 392.04C67.4937 393.83 69.0206 395.313 70.8386 395.313C72.6535 395.3 74.0396 393.908 74.0856 392.071C74.0776 392.041 74.0732 392.01 74.073 391.978M70.7636 387.991C68.5656 388.036 66.722 389.894 66.7523 392.05L70.7636 387.991Z" fill="#D4CEEA"/>
<path fill-rule="evenodd" clip-rule="evenodd" d="M0.0782027 372.946C0.201605 372.791 0.427075 372.766 0.581804 372.889L39.7173 404.101C39.872 404.224 39.8974 404.45 39.774 404.605C39.6506 404.759 39.4251 404.785 39.2704 404.661L0.134927 373.45C-0.019803 373.326 -0.0451992 373.101 0.0782027 372.946Z" fill="#D4CEEA"/>
<path fill-rule="evenodd" clip-rule="evenodd" d="M7.45317 341.514C7.57655 341.36 7.80202 341.334 7.95676 341.458L52.4452 376.928C52.5999 377.051 52.6253 377.277 52.502 377.432C52.3786 377.586 52.1531 377.612 51.9984 377.488L7.50997 342.018C7.35522 341.895 7.32979 341.669 7.45317 341.514Z" fill="#D4CEEA"/>
<path fill-rule="evenodd" clip-rule="evenodd" d="M28.2051 375.639C28.3285 375.484 28.554 375.458 28.7087 375.582L46.8866 390.075C47.0414 390.198 47.0668 390.424 46.9434 390.578C46.82 390.733 46.5946 390.759 46.4398 390.635L28.2619 376.142C28.1072 376.019 28.0817 375.793 28.2051 375.639Z" fill="#D4CEEA"/>
<path fill-rule="evenodd" clip-rule="evenodd" d="M19.6475 359.248C19.7715 359.094 19.9971 359.07 20.1513 359.194L38.8384 374.223C38.9926 374.347 39.0171 374.572 38.893 374.726C38.769 374.881 38.5434 374.905 38.3892 374.781L19.7021 359.752C19.5479 359.628 19.5234 359.403 19.6475 359.248Z" fill="#D4CEEA"/>
<path fill-rule="evenodd" clip-rule="evenodd" d="M13.6337 374.277C13.7577 374.123 13.9832 374.099 14.1375 374.223L32.8246 389.238C32.9788 389.362 33.0034 389.587 32.8795 389.742C32.7555 389.896 32.5299 389.92 32.3757 389.796L13.6886 374.781C13.5343 374.657 13.5097 374.432 13.6337 374.277Z" fill="#D4CEEA"/>
<path fill-rule="evenodd" clip-rule="evenodd" d="M450.516 132.994C454.728 132.865 458.444 136.119 460.022 139.919L460.023 139.919C461.877 144.394 461.506 150.199 461.177 154.808M425.206 176.79C427.609 178.301 432.738 180.678 437.784 181.819C440.308 182.39 442.784 182.645 444.876 182.344C446.963 182.044 448.63 181.198 449.616 179.597L449.616 179.597C450.434 178.271 450.672 176.875 450.669 175.449C450.668 174.47 450.556 173.506 450.444 172.54C450.39 172.077 450.336 171.613 450.294 171.147C450.167 169.738 450.157 168.334 450.685 167.055C451.22 165.759 452.285 164.642 454.202 163.758C457.678 162.149 460.196 158.567 460.462 154.758L460.462 154.757C460.794 150.108 461.138 144.483 459.36 140.193C457.857 136.575 454.362 133.593 450.538 133.71L450.538 133.71C447.113 133.815 444.094 136.289 442.172 139.249L442.172 139.249C442.054 139.429 441.937 139.615 441.819 139.804C441.239 140.726 440.618 141.713 439.71 142.414L439.708 142.416C438.543 143.305 437.159 143.573 435.759 143.624C435.058 143.649 434.344 143.621 433.642 143.584C433.495 143.576 433.35 143.568 433.205 143.56C432.65 143.53 432.106 143.5 431.573 143.492L431.572 143.492C425.229 143.371 418.947 147.194 416.229 152.916C415.839 153.748 415.53 154.608 415.287 155.483C415.283 155.498 415.278 155.513 415.271 155.528M450.516 132.994C446.758 133.109 443.557 135.801 441.571 138.858L450.516 132.994ZM441.571 138.858C441.571 138.858 441.571 138.858 441.571 138.858L441.871 139.053L441.571 138.858Z" fill="#D4CEEA"/>
<path d="M431.578 147.241C428.55 147.488 425.716 148.697 423.514 150.593C422.427 151.555 421.477 152.667 420.776 153.917C420.597 154.233 420.445 154.549 420.294 154.865L419.936 155.868C419.661 156.528 419.51 157.228 419.386 157.943C418.89 160.773 419.455 163.726 420.789 166.309C421.45 167.614 422.317 168.823 423.321 169.922C424.285 171.062 425.427 172.037 426.624 172.985C423.913 171.611 421.519 169.496 419.881 166.831C418.216 164.179 417.514 160.869 418.037 157.723C418.189 156.94 418.368 156.17 418.684 155.429L419.111 154.302C419.289 153.945 419.468 153.588 419.689 153.258C420.542 151.912 421.601 150.703 422.881 149.782C424.147 148.848 425.564 148.134 427.037 147.681C428.537 147.282 430.092 147.076 431.605 147.255L431.578 147.241Z" fill="#D4CEEA"/>
<path fill-rule="evenodd" clip-rule="evenodd" d="M452.544 133.437C452.63 133.312 452.785 133.255 452.932 133.295C456.115 134.154 458.75 136.843 460.022 139.919C461.891 144.394 461.52 150.199 461.191 154.808L461.191 154.809C460.892 158.884 458.225 162.692 454.503 164.409C454.503 164.409 454.502 164.409 454.502 164.409L454.352 164.083L454.503 164.408C454.503 164.408 454.503 164.409 454.503 164.409C452.711 165.238 451.8 166.24 451.348 167.334C450.889 168.445 450.883 169.701 451.008 171.088C451.046 171.515 451.097 171.957 451.15 172.41C451.265 173.397 451.385 174.431 451.386 175.45C451.388 176.958 451.136 178.497 450.226 179.973L450.226 179.973C449.09 181.817 447.192 182.741 444.972 183.061C442.757 183.381 440.185 183.109 437.621 182.529C432.493 181.369 427.292 178.955 424.823 177.396L424.822 177.395C423.291 176.423 421.855 175.323 420.558 174.097C420.427 173.974 420.408 173.772 420.514 173.626C420.62 173.481 420.817 173.436 420.975 173.522C423.91 175.124 428.794 177.182 433.418 178.047C435.73 178.48 437.953 178.61 439.826 178.251C441.692 177.893 443.185 177.057 444.098 175.572L444.098 175.572C444.916 174.246 445.153 172.851 445.152 171.426C445.15 170.449 445.039 169.488 444.927 168.524C444.873 168.06 444.819 167.595 444.777 167.127C444.652 165.718 444.643 164.315 445.173 163.035C445.71 161.739 446.777 160.621 448.698 159.733L448.848 160.058L448.698 159.733C448.698 159.733 448.698 159.733 448.698 159.733C452.173 158.124 454.692 154.542 454.958 150.733L454.958 150.732C455.29 146.083 455.634 140.46 453.857 136.17C453.857 136.171 453.857 136.171 453.858 136.172L454.187 136.031L453.856 136.168C453.856 136.169 453.857 136.169 453.857 136.17C453.509 135.356 453.068 134.57 452.548 133.851C452.459 133.728 452.457 133.562 452.544 133.437ZM453.713 134.316C454.017 134.823 454.286 135.351 454.517 135.89L454.518 135.894L454.518 135.894C456.373 140.369 456.002 146.174 455.673 150.783C455.388 154.859 452.706 158.668 448.999 160.383L448.998 160.383C447.203 161.213 446.289 162.215 445.835 163.309C445.375 164.42 445.368 165.677 445.491 167.063C445.529 167.491 445.581 167.935 445.633 168.389C445.747 169.375 445.867 170.407 445.868 171.425C445.87 172.933 445.618 174.472 444.708 175.948C443.661 177.651 441.963 178.571 439.961 178.955C437.965 179.337 435.643 179.193 433.286 178.752C429.794 178.098 426.172 176.783 423.316 175.483C423.925 175.942 424.557 176.377 425.207 176.79C427.61 178.308 432.735 180.689 437.779 181.83C440.301 182.4 442.777 182.654 444.87 182.352C446.957 182.05 448.627 181.202 449.616 179.597C450.434 178.271 450.672 176.876 450.669 175.451C450.668 174.473 450.556 173.51 450.444 172.545C450.39 172.082 450.336 171.618 450.294 171.152C450.167 169.744 450.157 168.34 450.685 167.061C451.22 165.765 452.285 164.646 454.202 163.758L454.202 163.758C457.691 162.15 460.197 158.568 460.476 154.757C460.808 150.107 461.152 144.484 459.361 140.194L459.36 140.193C458.291 137.606 456.213 135.343 453.713 134.316ZM455.673 150.783C455.673 150.783 455.673 150.783 455.673 150.783L455.316 150.758L455.673 150.783C455.673 150.783 455.673 150.783 455.673 150.783Z" fill="#D4CEEA"/>
<path fill-rule="evenodd" clip-rule="evenodd" d="M448.84 149.548C451.389 149.488 453.608 151.609 453.638 154.133L453.638 154.135L453.638 154.135C453.653 156.696 451.539 158.836 448.96 158.837C446.382 158.851 444.252 156.741 444.252 154.178V154.176H444.252C444.267 151.699 446.352 149.607 448.84 149.548L448.84 149.548ZM448.857 150.264C451.014 150.214 452.896 152.022 452.921 154.141C452.933 156.305 451.14 158.12 448.959 158.12L448.957 158.12C446.774 158.133 444.969 156.342 444.969 154.18C444.982 152.097 446.75 150.315 448.857 150.264" fill="#D4CEEA"/>
<path fill-rule="evenodd" clip-rule="evenodd" d="M431.029 151.707C428.507 151.693 426.53 153.649 426.555 156.084L426.555 156.086C426.568 158.485 428.554 160.455 430.944 160.455C433.387 160.455 435.392 158.541 435.443 156.19C435.494 153.741 433.524 151.72 431.038 151.707C431.035 151.707 431.032 151.707 431.029 151.707ZM431.065 150.99C431.063 150.99 431.06 150.99 431.058 150.99C428.141 150.961 425.809 153.231 425.838 156.091C425.853 158.884 428.16 161.172 430.944 161.172C433.757 161.172 436.1 158.966 436.16 156.206L436.16 156.205C436.219 153.36 433.936 151.017 431.065 150.99Z" fill="#D4CEEA"/>
<path fill-rule="evenodd" clip-rule="evenodd" d="M439.02 166.404L439.022 166.404C441.222 166.404 443.079 168.191 443.11 170.384M435.074 170.563C435.064 170.529 435.059 170.494 435.059 170.458C435.059 168.193 436.766 166.419 439.02 166.404M435.776 170.363C435.784 170.392 435.789 170.423 435.789 170.455C435.802 172.323 437.254 173.763 439.084 173.726M435.776 170.363C435.822 168.526 437.209 167.133 439.023 167.12C440.841 167.121 442.368 168.604 442.393 170.394L442.393 170.394C442.418 172.14 440.904 173.689 439.084 173.726" fill="#D4CEEA"/>
<path fill-rule="evenodd" clip-rule="evenodd" d="M467.75 158.241C467.874 158.086 468.099 158.061 468.254 158.184L502.656 185.632C502.81 185.756 502.836 185.981 502.712 186.136C502.589 186.291 502.363 186.316 502.209 186.192L467.807 158.745C467.652 158.621 467.627 158.396 467.75 158.241Z" fill="#D4CEEA"/>
<path fill-rule="evenodd" clip-rule="evenodd" d="M456.563 187.516C456.686 187.361 456.911 187.336 457.066 187.459L490.821 214.371C490.976 214.495 491.001 214.72 490.878 214.875C490.755 215.029 490.529 215.055 490.374 214.932L456.619 188.02C456.465 187.896 456.439 187.671 456.563 187.516Z" fill="#D4CEEA"/>
<path fill-rule="evenodd" clip-rule="evenodd" d="M460.58 172.267C460.704 172.113 460.929 172.087 461.084 172.21L479.262 186.704C479.416 186.827 479.442 187.052 479.318 187.207C479.195 187.362 478.97 187.387 478.815 187.264L460.637 172.771C460.482 172.648 460.457 172.422 460.58 172.267Z" fill="#D4CEEA"/>
<path fill-rule="evenodd" clip-rule="evenodd" d="M461.571 183.339C461.695 183.184 461.921 183.16 462.075 183.284L479.455 197.255C479.609 197.379 479.634 197.605 479.51 197.759C479.386 197.913 479.16 197.938 479.006 197.814L461.626 183.842C461.472 183.718 461.447 183.493 461.571 183.339Z" fill="#D4CEEA"/>
<path fill-rule="evenodd" clip-rule="evenodd" d="M474.646 173.104C474.77 172.95 474.995 172.925 475.149 173.049L493.836 188.078C493.991 188.202 494.015 188.428 493.891 188.582C493.767 188.736 493.541 188.761 493.387 188.637L474.7 173.608C474.546 173.484 474.521 173.258 474.646 173.104Z" fill="#D4CEEA"/>
<defs>
<linearGradient id="paint0_linear_242_28" x1="156.419" y1="420.564" x2="251.398" y2="475.488" gradientUnits="userSpaceOnUse">
<stop offset="0.32" stop-color="#9077ED"/>
<stop offset="0.76" stop-color="#806CE5"/>
</linearGradient>
<linearGradient id="paint1_linear_242_28" x1="337.481" y1="46.6544" x2="413.665" y2="90.7119" gradientUnits="userSpaceOnUse">
<stop offset="0.32" stop-color="#9077ED"/>
<stop offset="0.76" stop-color="#806CE5"/>
</linearGradient>
</defs>
</svg>
